<svg xmlns="http://www.w3.org/2000/svg" viewBox="0 0 300 300"><g transform="translate(0 300) scale(1 -1)"><path fill="#000000" d="M292 137Q282 150 266 150H250Q245 150 241.0 146.5Q237 143 237.5 137.5Q238 132 241.5 128.5Q245 125 250 125H266Q270 125 273.0 122.0Q276 119 275 115Q269 89 252 69Q235 50 211.5 39.0Q188 28 163 26V125H188Q193 125 196.5 128.5Q200 132 200.0 137.5Q200 143 196.5 146.5Q193 150 188 150H163V202Q179 206 189.5 219.5Q200 233 200 250Q200 271 185.5 285.5Q171 300 150.0 300.0Q129 300 114.5 285.5Q100 271 100 250Q100 233 110.5 219.5Q121 206 138 202V150H113Q107 150 103.5 146.5Q100 143 100.0 137.5Q100 132 103.5 128.5Q107 125 113 125H138V26Q112 28 88.5 39.0Q65 50 48 69Q31 89 25 115Q24 119 27.0 122.0Q30 125 34 125H50Q55 125 59.0 128.5Q63 132 63.0 137.5Q63 143 59.0 146.5Q55 150 50 150H34Q18 150 8.0 137.5Q-2 125 1 110Q8 75 32 49Q54 26 85.5 13.0Q117 0 150.0 0.0Q183 0 214.5 13.0Q246 26 268 49Q292 75 299 110Q302 125 292 137ZM125 250Q125 260 132.5 267.5Q140 275 150.0 275.0Q160 275 167.5 267.5Q175 260 175.0 250.0Q175 240 167.5 232.5Q160 225 150.0 225.0Q140 225 132.5 232.5Q125 240 125 250Z"/></g></svg>
