<svg xmlns="http://www.w3.org/2000/svg" viewBox="0 0 300 300"><g transform="translate(0 300) scale(1 -1)"><path fill="#000000" d="M264 279Q260 285 253.5 287.0Q247 289 240.0 286.5Q233 284 229.0 278.5Q225 273 225 266Q224 239 221 224Q218 205 207.5 193.5Q197 182 177 177Q181 185 181 194V232Q181 236 177.0 237.5Q173 239 171 235L162 223Q156 225 150.0 225.0Q144 225 138 223L129 235Q127 239 123.0 237.5Q119 236 119 232V194Q119 185 123 177Q103 182 92.5 193.5Q82 205 79 224Q76 239 75 266Q75 273 71.0 278.5Q67 284 60.0 286.5Q53 289 46.5 287.0Q40 285 36 279Q18 257 8 215Q-1 180 0 150Q0 135 6 98Q7 91 14.0 88.5Q21 86 27 91Q30 94 35.0 97.0Q40 100 44.5 100.0Q49 100 56.5 87.5Q64 75 67 59Q69 52 77.0 50.5Q85 49 89 55Q92 58 96.0 60.0Q100 62 102 62Q111 62 121 52Q126 32 132 13Q134 7 139.0 3.5Q144 0 150.0 0.0Q156 0 161.0 3.5Q166 7 168 13Q174 32 179 52Q189 62 198 63Q200 62 204.0 60.0Q208 58 211 55Q215 49 223.0 50.5Q231 52 233 59Q236 75 243.5 87.5Q251 100 255.5 100.0Q260 100 265.0 97.0Q270 94 273 91Q279 86 286.0 88.5Q293 91 294 98Q300 135 300 150Q301 180 292 215Q282 257 264 279ZM102 88Q93 87 86 83Q79 100 70 111Q58 125 44 125Q36 125 28 121Q25 143 25 150Q25 175 32.0 206.0Q39 237 50 256Q51 232 55 215Q61 192 74 177Q91 159 119 153Q112 137 112 118Q112 104 115 85Q109 87 102 88ZM138 118Q138 136 145 150H155Q162 136 162 118Q163 88 150 41Q138 88 138 118ZM275 150Q275 143 272 121Q264 125 256 125Q242 125 230 111Q221 101 214 83Q207 87 199.0 87.0Q191 87 185 85Q187 104 187 118Q187 137 181 153Q209 159 226 177Q239 192 245 215Q249 232 250 256Q261 237 268.0 206.0Q275 175 275 150Z"/></g></svg>
