<svg xmlns="http://www.w3.org/2000/svg" viewBox="0 0 300 300"><g transform="translate(0 300) scale(1 -1)"><path fill="#000000" d="M284 182Q272 194 245 201Q221 208 189 211Q194 220 194.0 231.5Q194 243 188.5 252.5Q183 262 173 268Q184 275 200 275Q205 275 208.5 278.5Q212 282 212.0 287.5Q212 293 208.5 296.5Q205 300 200 300Q170 300 150 282Q130 300 100 300Q95 300 91.0 296.5Q87 293 87.0 287.5Q87 282 91.0 278.5Q95 275 100 275Q116 275 127 268Q117 262 111.5 252.5Q106 243 106.0 231.5Q106 220 111 211Q79 208 55 201Q28 194 16 182Q0 165 0.0 142.5Q0 120 16.0 104.0Q32 88 53.5 88.0Q75 88 91 102Q95 77 106 51Q115 28 125 14Q129 7 135.5 3.5Q142 0 150.0 0.0Q158 0 164.5 3.5Q171 7 175 14Q185 28 194 51Q205 77 209 102Q225 88 246.5 88.0Q268 88 284.0 104.0Q300 120 300.0 142.5Q300 165 284 182ZM150 250Q158 250 163.5 244.5Q169 239 169.0 231.0Q169 223 163.5 218.0Q158 213 150.0 213.0Q142 213 136.5 218.0Q131 223 131.0 231.0Q131 239 136.5 244.5Q142 250 150 250ZM144 171Q146 173 148 176L150 179L180 137H120ZM75 121Q67 113 54.5 113.0Q42 113 33.5 121.5Q25 130 25.0 142.5Q25 155 33.0 163.5Q41 172 64 178Q90 185 125 187V186Q87 133 75 121ZM155 28Q153 25 150.0 25.0Q147 25 145 28Q137 40 128 62H172Q163 40 155 28ZM180 88H120Q116 101 114 113H186Q184 101 180 87ZM266 121Q258 113 245.5 113.0Q233 113 225 121Q213 133 175 187Q210 185 236 178Q259 172 267.0 163.5Q275 155 275.0 142.5Q275 130 266 121Z"/></g></svg>
