<svg xmlns="http://www.w3.org/2000/svg" viewBox="0 0 300 300"><g transform="translate(0 300) scale(1 -1)"><path fill="#000000" d="M225 188V288Q225 293 228.5 296.5Q232 300 237 300Q249 300 259 295L295 280Q300 276 300.0 269.0Q300 262 295 258L250 234V188Q250 182 246.5 178.5Q243 175 237.5 175.0Q232 175 228.5 178.5Q225 182 225 188ZM250 125H163Q152 125 145.0 132.5Q138 140 138.0 150.0Q138 160 145.0 167.5Q152 175 162 175H188Q193 175 196.5 178.5Q200 182 200.0 187.5Q200 193 196.5 196.5Q193 200 188 200H163Q142 200 127.5 185.5Q113 171 113.0 150.0Q113 129 127.5 114.5Q142 100 163 100H250Q260 100 267.5 92.5Q275 85 275.0 75.0Q275 65 267.5 57.5Q260 50 250 50H175Q170 50 166.5 46.5Q163 43 163.0 37.5Q163 32 166.5 28.5Q170 25 175 25H250Q271 25 285.5 39.5Q300 54 300.0 75.0Q300 96 285.5 110.5Q271 125 250 125ZM106 63Q106 63 105 62H104L90 88H100Q105 88 108.5 91.5Q112 95 112.0 100.0Q112 105 108.5 108.5Q105 112 100 112H83Q71 113 65.0 102.5Q59 92 65 82V80L54 73L46 88Q42 93 36.5 96.5Q31 100 24 100H12Q7 100 3.5 96.5Q0 93 0.0 87.5Q0 82 3.5 78.5Q7 75 12 75H24L32 62H31Q18 62 9.0 53.0Q0 44 0.0 31.0Q0 18 9.0 9.0Q18 0 31.0 0.0Q44 0 53.0 9.0Q62 18 62 31Q62 39 58 47L77 58L82 50Q75 42 75 31Q75 18 84.0 9.0Q93 0 106.0 0.0Q119 0 128.0 9.0Q137 18 137.0 31.0Q137 44 128.0 53.0Q119 62 106 62Z"/></g></svg>
