<svg xmlns="http://www.w3.org/2000/svg" viewBox="0 0 300 300"><g transform="translate(0 300) scale(1 -1)"><path fill="#000000" d="M269 138Q283 152 291.0 170.5Q299 189 300 209Q300 255 281 275Q268 287 251 287Q225 287 196 265Q175 248 150 218Q125 248 104 265Q75 287 50 287Q31 288 18.0 272.5Q5 257 1.5 232.0Q-2 207 5 182Q13 156 31 138L38 132Q21 116 15.5 93.5Q10 71 17 49Q20 38 27.5 29.5Q35 21 45.5 16.5Q56 12 67.0 12.5Q78 13 87 18Q115 33 137 55V25Q138 20 141.5 16.0Q145 12 150.0 12.0Q155 12 159.0 16.0Q163 20 163 25V55Q185 33 213 18Q222 13 233.5 12.5Q245 12 255.0 16.5Q265 21 272.5 29.5Q280 38 283 49Q291 71 285.0 93.5Q279 116 263 133ZM138 105Q137 91 120.0 72.5Q103 54 76 40Q66 35 55.0 39.5Q44 44 41 56Q35 73 40.5 90.5Q46 108 60 119Q75 113 90 112Q115 112 138 121ZM138 150Q116 136 90 137Q78 138 67.5 142.5Q57 147 49 156Q38 167 32.0 180.5Q26 194 25 209Q25 234 31.5 248.0Q38 262 50 262Q83 262 137 194ZM163 194Q217 262 251 262Q262 262 268.5 248.0Q275 234 275 209Q274 194 268.0 180.5Q262 167 251 156Q235 139 211 137Q185 136 163 150ZM259 56Q256 44 245.0 39.5Q234 35 224 40Q197 54 179.5 72.5Q162 91 162 105V121Q185 112 210 113Q226 113 240 119Q255 108 260.0 90.5Q265 73 259 56ZM125 275Q125 285 132.5 292.5Q140 300 150.0 300.0Q160 300 167.5 292.5Q175 285 175.0 275.0Q175 265 167.5 257.5Q160 250 150.0 250.0Q140 250 132.5 257.5Q125 265 125 275Z"/></g></svg>
