<svg xmlns="http://www.w3.org/2000/svg" viewBox="0 0 300 300"><g transform="translate(0 300) scale(1 -1)"><path fill="#000000" d="M31 257Q31 263 37 265L54 272L60 288Q62 294 68.5 294.0Q75 294 77 288L84 272L100 265Q106 263 106.0 256.5Q106 250 100 248L84 241L77 225Q75 219 68.5 219.0Q62 219 60 225L53 241L37 248Q31 251 31 257ZM300 13Q300 7 296.5 3.5Q293 0 288 0H82Q73 0 71 1Q42 4 22 22Q0 41 0 69Q0 86 7 104Q11 114 22 131Q30 144 33 150Q38 160 38 169Q38 183 31.5 190.5Q25 198 11 200Q6 201 2.5 205.0Q-1 209 0.0 214.0Q1 219 5.0 222.5Q9 226 14 225Q38 222 50.0 207.5Q62 193 62 169Q63 155 57 142Q53 133 43 118Q34 103 31 95Q25 82 25 69Q25 53 37 42Q46 32 62 28Q62 43 66 60Q72 90 86 115Q105 147 138 167Q125 188 125.0 212.0Q125 236 137.0 256.0Q149 276 169.0 288.0Q189 300 212.5 300.0Q236 300 256.0 288.0Q276 276 288.0 256.0Q300 236 300 212Q300 195 293.5 179.0Q287 163 275 151V25H288Q293 25 296.5 21.5Q300 18 300 12ZM250 133Q232 125 213 125Q196 125 181.0 131.0Q166 137 154 148Q123 130 106 99Q93 77 89 50Q87 35 87 25H200Q200 46 185.5 60.5Q171 75 150 75Q145 75 141.0 78.5Q137 82 137.5 87.5Q138 93 141.5 96.5Q145 100 150 100Q170 100 187.5 90.0Q205 80 215.0 62.5Q225 45 225 25H250ZM263 255Q263 260 258.0 262.0Q253 264 250 260L237 243Q226 250 212.5 250.0Q199 250 188 243L175 260Q172 264 167.0 262.0Q162 260 162 255V215Q162 195 175.0 180.0Q188 165 207 163Q222 161 234.5 167.5Q247 174 254.5 186.0Q262 198 262 212V255Z"/></g></svg>
