<svg xmlns="http://www.w3.org/2000/svg" viewBox="0 0 300 300"><g transform="translate(0 300) scale(1 -1)"><path fill="#000000" d="M94 150Q86 150 80.5 155.5Q75 161 75.0 169.0Q75 177 80.5 182.5Q86 188 94.0 187.5Q102 187 107.5 182.0Q113 177 112.5 169.0Q112 161 107.0 155.5Q102 150 94 150ZM112 63Q112 62 112.5 62.5Q113 63 112 62ZM188 63Q187 63 187.5 62.5Q188 62 188 63ZM300 131Q300 96 282.5 65.5Q265 35 234.5 17.5Q204 0 169 0H132Q96 0 66.0 17.5Q36 35 18.0 65.5Q0 96 0 131Q0 206 10 279Q11 286 15.5 291.5Q20 297 26.5 299.0Q33 301 40.0 299.0Q47 297 51 292L73 270Q75 268 77.5 267.5Q80 267 82 269Q117 287 150.5 287.5Q184 288 218 269Q220 268 223.0 268.0Q226 268 227 270L249 292Q253 297 260.0 299.0Q267 301 273.5 298.5Q280 296 284.5 291.0Q289 286 290 279Q295 242 297 218Q300 175 300 131ZM275 131Q275 174 272 215Q270 239 265 274L245 253Q238 245 226.5 243.5Q215 242 206 247Q177 263 150.0 262.5Q123 262 94 247Q84 241 73.5 243.0Q63 245 55 253L34 274Q25 204 25 131Q25 102 39.5 78.0Q54 54 78.5 39.5Q103 25 132 25H169Q198 25 222.0 39.5Q246 54 260.5 78.0Q275 102 275 131ZM190 87Q178 90 171 99Q166 105 164 115Q172 118 176.5 124.0Q181 130 181.0 136.0Q181 142 173.0 146.0Q165 150 150.0 150.0Q135 150 127.0 146.0Q119 142 119.0 136.0Q119 130 123.5 124.0Q128 118 136 115Q134 105 129 99Q122 90 110 87Q105 86 102.0 82.0Q99 78 100.0 73.0Q101 68 104.5 65.0Q108 62 112 62Q125 64 134.5 70.5Q144 77 150 86Q157 76 164 71Q174 63 188 62Q192 62 195.5 65.0Q199 68 200.0 73.0Q201 78 198.0 82.0Q195 86 190 87ZM206 188Q198 187 192.5 182.0Q187 177 187.0 169.0Q187 161 192.5 155.5Q198 150 206.0 150.0Q214 150 219.5 155.5Q225 161 225.0 169.0Q225 177 219.5 182.5Q214 188 206 188Z"/></g></svg>
