<svg xmlns="http://www.w3.org/2000/svg" viewBox="0 0 300 300"><g transform="translate(0 300) scale(1 -1)"><path fill="#000000" d="M300 219V288Q300 295 293.0 298.5Q286 302 280 298L259 282Q246 287 231.5 287.5Q217 288 204 282L183 298Q176 302 169.5 298.5Q163 295 163 287V219Q163 199 173 183Q125 167 97 131Q76 103 67 67Q62 46 62 28Q46 32 37 42Q25 53 25 69Q25 82 31 95Q34 103 43 118Q53 133 57 142Q62 155 62 169Q62 193 50.0 207.5Q38 222 14 225Q9 226 5.0 222.5Q1 219 0.0 214.0Q-1 209 2.5 205.0Q6 201 11 200Q25 198 31.0 190.5Q37 183 37 169Q37 160 33 150Q30 144 22 131Q11 114 7 104Q0 86 0 69Q0 41 22 22Q42 4 71 1Q73 0 82 0H287Q293 0 296.5 3.5Q300 7 300.0 12.5Q300 18 296.5 21.5Q293 25 287 25H275V166Q287 175 293.5 189.0Q300 203 300 219ZM250 25H225Q225 45 215.0 62.5Q205 80 187.5 90.0Q170 100 150 100Q145 100 141.5 96.5Q138 93 138.0 87.5Q138 82 141.5 78.5Q145 75 150 75Q171 75 185.5 60.5Q200 46 200 25H87Q87 39 90 56Q97 90 117 115Q143 150 192 163Q209 150 231 150Q241 150 250 153ZM231 175Q213 175 200.5 188.0Q188 201 188.0 219.0Q188 237 200.5 250.0Q213 263 231.0 263.0Q249 263 262.0 250.0Q275 237 275.0 219.0Q275 201 262.0 188.0Q249 175 231 175Z"/></g></svg>
