<svg xmlns="http://www.w3.org/2000/svg" viewBox="0 0 300 300"><g transform="translate(0 300) scale(1 -1)"><path fill="#000000" d="M255 138Q241 138 230 130Q223 208 160 295Q156 300 150.0 300.0Q144 300 140 295Q109 252 91.0 210.5Q73 169 70 130Q55 140 38.5 137.0Q22 134 11.0 119.0Q0 104 0 81Q0 52 17.0 31.5Q34 11 59.5 3.5Q85 -4 110.0 5.0Q135 14 150 38Q165 14 190.0 5.0Q215 -4 240.5 3.5Q266 11 283.0 31.5Q300 52 300 81Q300 106 286.5 122.0Q273 138 255 138ZM150 266Q194 205 205 132Q191 140 175.5 136.5Q160 133 150 120Q140 133 124.5 136.5Q109 140 95 132Q106 205 150 266ZM81 25Q58 25 41.5 41.5Q25 58 25 81Q25 97 32 106Q38 112 44.0 112.0Q50 112 53.0 111.0Q56 110 60.0 106.5Q64 103 68 102Q73 100 81.0 100.0Q89 100 95 102Q98 103 102.0 106.5Q106 110 109.0 111.0Q112 112 118.0 112.5Q124 113 130 106Q138 97 138 81Q137 58 121.0 41.5Q105 25 81 25ZM219 25Q195 25 179.0 41.5Q163 58 163 81Q163 97 170 106Q176 112 181.5 112.0Q187 112 190.5 111.0Q194 110 198.0 106.5Q202 103 205 102Q211 100 219.0 100.0Q227 100 232 102Q236 103 240.0 106.5Q244 110 247.0 111.0Q250 112 255.5 112.5Q261 113 267 106Q275 97 275 81Q275 58 258.5 41.5Q242 25 219 25Z"/></g></svg>
