<svg xmlns="http://www.w3.org/2000/svg" viewBox="0 0 300 300"><g transform="translate(0 300) scale(1 -1)"><path fill="#000000" d="M275 25V175Q275 188 270 205Q261 240 239 263Q208 295 155 300Q144 301 134.0 294.5Q124 288 119 277Q111 256 93 242Q78 231 52 221Q40 217 32.5 206.5Q25 196 25.0 182.5Q25 169 34.5 159.5Q44 150 58 150H123Q113 103 78 63Q57 40 34 25H25Q20 25 16.0 21.5Q12 18 12.5 12.5Q13 7 16.5 3.5Q20 0 25 0H275Q280 0 284.0 3.5Q288 7 288.0 12.5Q288 18 284.0 21.5Q280 25 275 25ZM150 161Q151 167 147.0 171.0Q143 175 138 175H58Q55 175 52.5 177.5Q50 180 50.0 184.0Q50 188 52.5 192.0Q55 196 60 198Q89 208 107 221Q131 240 143 268Q144 271 147.0 273.0Q150 275 153 275Q179 274 201.5 260.5Q224 247 237.0 224.5Q250 202 250 175V25H75Q106 51 125.0 86.0Q144 121 150 161Z"/></g></svg>
