<svg xmlns="http://www.w3.org/2000/svg" viewBox="0 0 300 300"><g transform="translate(0 300) scale(1 -1)"><path fill="#000000" d="M300 38Q300 22 289.0 11.0Q278 0 262 0H200Q195 0 191.5 3.5Q188 7 187.5 12.5Q187 18 191.0 21.5Q195 25 200 25H263Q268 25 271.5 28.5Q275 32 275.0 37.5Q275 43 271.5 46.5Q268 50 262 50H213Q207 50 203.5 53.5Q200 57 200.0 62.5Q200 68 203.5 71.5Q207 75 212 75H250V163H200V88Q200 82 196.5 78.5Q193 75 187.5 75.0Q182 75 178.5 78.5Q175 82 175 88V166Q169 169 166.0 175.0Q163 181 163 188V200Q163 205 166.5 209.0Q170 213 175.0 213.0Q180 213 184.0 209.0Q188 205 188 200V188H213V200Q213 205 216.5 209.0Q220 213 225.0 213.0Q230 213 234.0 209.0Q238 205 237 200V188H263V200Q263 205 266.5 209.0Q270 213 275.0 213.0Q280 213 284.0 209.0Q288 205 288 200V188Q287 181 284.0 175.0Q281 169 275 166V73Q286 69 293.0 59.0Q300 49 300 38ZM175 38Q175 22 164.0 11.0Q153 0 138 0H38Q23 0 12.5 9.5Q2 19 0.5 33.0Q-1 47 6.5 58.5Q14 70 28 74Q45 129 50 188Q46 188 43.0 190.0Q40 192 38.5 195.5Q37 199 37.5 202.5Q38 206 41 209L28 229Q25 236 25.5 244.5Q26 253 30.5 260.0Q35 267 42.0 271.0Q49 275 57 275H75V288Q75 293 78.5 296.5Q82 300 87.5 300.0Q93 300 96.5 296.5Q100 293 100 288V275H118Q126 275 133.0 271.0Q140 267 144.5 260.0Q149 253 149.5 244.5Q150 236 147 229L134 209Q137 206 137.5 202.5Q138 199 136.5 195.5Q135 192 132.0 190.0Q129 188 125 187Q130 129 147 74Q159 70 167.0 60.0Q175 50 175 37ZM75 188Q71 130 54 75H121Q104 130 100 187ZM51 240 68 213H107L125 240Q126 244 123.5 247.0Q121 250 118 250H58Q53 250 51.0 246.5Q49 243 50 240ZM150 38Q150 43 146.5 46.5Q143 50 138 50H38Q32 50 28.5 46.5Q25 43 25.0 37.5Q25 32 28.5 28.5Q32 25 38 25H138Q143 25 146.5 28.5Q150 32 150 38Z"/></g></svg>
