<svg xmlns="http://www.w3.org/2000/svg" viewBox="0 0 300 300"><g transform="translate(0 300) scale(1 -1)"><path fill="#000000" d="M238 25H221Q240 41 251.5 64.0Q263 87 263 112Q263 150 222 198Q198 228 164 255Q171 259 173.5 267.0Q176 275 173.5 282.5Q171 290 164.5 295.0Q158 300 150.0 300.0Q142 300 135.5 295.5Q129 291 126.5 283.0Q124 275 126.5 267.5Q129 260 135 255Q101 231 77 203Q37 157 37 113Q37 87 48.5 64.0Q60 41 79 25H63Q57 25 53.5 21.5Q50 18 50.0 12.5Q50 7 53.5 3.5Q57 0 63 0H238Q243 0 246.5 3.5Q250 7 250.0 12.5Q250 18 246.5 21.5Q243 25 238 25ZM63 113Q63 149 98 189Q119 213 149 235Q172 216 192 195L140 133Q137 129 137.5 124.0Q138 119 142.0 115.5Q146 112 151.0 112.5Q156 113 160 117L209 176Q238 139 238 113Q237 89 225.5 69.0Q214 49 194.0 37.0Q174 25 150.0 25.0Q126 25 106.0 37.0Q86 49 74.0 69.0Q62 89 62 112Z"/></g></svg>
