<svg xmlns="http://www.w3.org/2000/svg" viewBox="0 0 300 300"><g transform="translate(0 300) scale(1 -1)"><path fill="#000000" d="M292 172Q285 184 274.5 191.5Q264 199 251 202Q207 211 163 212V238H188Q193 237 196.5 241.0Q200 245 200.0 250.0Q200 255 196.5 258.5Q193 262 188 263H163V288Q163 293 159.0 296.5Q155 300 150.0 300.0Q145 300 141.0 296.5Q137 293 137 288V263H113Q107 263 103.5 259.0Q100 255 100.0 250.0Q100 245 103.5 241.0Q107 237 113 237H138V212Q93 211 49 202Q36 199 25.5 191.5Q15 184 8.5 172.5Q2 161 0.5 147.5Q-1 134 3 122L39 25H38Q32 25 28.5 21.5Q25 18 25.0 12.5Q25 7 28.5 3.5Q32 0 38 0H263Q268 0 271.5 3.5Q275 7 275.0 12.5Q275 18 271.5 21.5Q268 25 263 25H261L297 122Q301 135 299.5 148.0Q298 161 292 172ZM273 130 235 25H65L27 130Q22 146 30.0 160.0Q38 174 55 178Q102 187 150.0 187.0Q198 187 245 178Q262 174 270.0 160.0Q278 146 273 130Z"/></g></svg>
