<svg xmlns="http://www.w3.org/2000/svg" viewBox="0 0 300 300"><g transform="translate(0 300) scale(1 -1)"><path fill="#000000" d="M222 210Q217 234 200.5 252.5Q184 271 161.5 280.0Q139 289 114.0 286.5Q89 284 68.5 270.0Q48 256 36.5 234.5Q25 213 25.0 188.0Q25 163 36 142Q15 130 5.5 108.5Q-4 87 2.0 64.0Q8 41 26.5 26.5Q45 12 69 13H200Q225 13 246.5 24.5Q268 36 282.0 56.0Q296 76 299.0 101.0Q302 126 293.0 149.0Q284 172 265.5 188.0Q247 204 222 210ZM200 38H69Q52 37 39.5 48.0Q27 59 25.0 75.5Q23 92 32.5 105.5Q42 119 58 123Q64 125 66.5 131.5Q69 138 65 143Q50 163 50 188Q50 207 59.5 223.5Q69 240 85.0 250.0Q101 260 120.0 261.5Q139 263 156.5 255.0Q174 247 185.5 232.0Q197 217 199 198Q200 193 203.0 190.0Q206 187 210 187Q229 184 244.0 172.5Q259 161 267.5 144.0Q276 127 274.5 107.5Q273 88 262.5 72.0Q252 56 235.5 47.0Q219 38 200 37Z"/></g></svg>
