<svg xmlns="http://www.w3.org/2000/svg" viewBox="0 0 300 300"><g transform="translate(0 300) scale(1 -1)"><path fill="#000000" d="M186 0Q176 0 166.5 4.5Q157 9 150 17Q143 9 133.5 4.5Q124 0 114 0Q93 0 78.0 14.5Q63 29 63 50Q63 57 65 65Q57 63 50 62Q29 63 14.5 78.0Q0 93 0 114Q0 124 4.5 133.5Q9 143 17 150Q9 157 4.5 166.5Q0 176 0 186Q0 207 14.5 222.0Q29 237 50 237Q57 238 65 235Q62 243 62 250Q63 271 78.0 285.5Q93 300 114 300Q124 300 133.5 295.5Q143 291 150 283Q157 291 166.5 295.5Q176 300 186 300Q207 300 222.0 285.5Q237 271 237 250Q238 243 235 235Q243 237 250 237Q271 237 285.5 222.0Q300 207 300 186Q300 176 295.5 166.5Q291 157 283 150Q291 143 295.5 133.5Q300 124 300 114Q300 93 285.5 78.0Q271 63 250 63Q243 63 235 65Q238 57 237 50Q238 29 222.5 14.5Q207 0 186 0ZM150 50Q156 50 160 45L168 34Q175 25 185.5 25.0Q196 25 204.0 32.0Q212 39 212 50Q212 58 201 82Q199 86 200.0 90.0Q201 94 203.5 96.5Q206 99 210.0 100.0Q214 101 218 99Q242 87 250 87Q261 88 268.0 96.0Q275 104 275.0 114.5Q275 125 266 132L255 140Q250 144 250.0 150.0Q250 156 255 160L266 168Q275 175 275.0 185.5Q275 196 268.0 204.0Q261 212 250 212Q242 212 218 201Q214 199 210.0 200.0Q206 201 203.5 203.5Q201 206 200.0 210.0Q199 214 201 218Q212 242 212 250Q212 261 204.0 268.0Q196 275 185.5 275.0Q175 275 168 266L160 255Q156 250 150.0 250.0Q144 250 140 255L132 266Q125 275 114.5 275.0Q104 275 95.5 268.0Q87 261 87 250Q87 242 99 218Q100 214 99.5 210.0Q99 206 96.5 203.5Q94 201 90.0 200.0Q86 199 82 201Q58 212 50 212Q39 212 32.0 204.0Q25 196 25.0 185.5Q25 175 34 168L45 160Q50 156 50.0 150.0Q50 144 45 140L34 132Q25 125 25.0 114.5Q25 104 32.0 95.5Q39 87 50 87Q58 87 82 99Q86 100 90.0 99.5Q94 99 96.5 96.5Q99 94 99.5 90.0Q100 86 99 82Q87 58 87 50Q87 39 95.5 32.0Q104 25 114.5 25.0Q125 25 132 34L140 45Q144 50 150 50Z"/></g></svg>
