<svg xmlns="http://www.w3.org/2000/svg" viewBox="0 0 300 300"><g transform="translate(0 300) scale(1 -1)"><path fill="#000000" d="M290 275H273Q275 281 275.0 287.0Q275 293 271.5 296.5Q268 300 262.5 300.0Q257 300 253.5 296.5Q250 293 250.0 287.5Q250 282 247.0 278.5Q244 275 240 275H185Q181 275 178.0 278.5Q175 282 175.0 287.5Q175 293 171.5 296.5Q168 300 162.5 300.0Q157 300 153.5 296.5Q150 293 150.0 287.0Q150 281 152 275H135Q130 275 127.0 271.0Q124 267 126 262Q129 253 137.0 246.5Q145 240 155 238L160 213H87Q74 213 61.5 207.0Q49 201 41 191L4 159Q0 156 0.0 151.0Q0 146 3.5 142.0Q7 138 12.0 138.0Q17 138 21 141L25 144V38Q25 22 36.0 11.0Q47 0 63 0Q73 0 81.5 5.0Q90 10 95 19Q114 22 128.5 34.0Q143 46 148 63H175V38Q175 22 186.0 11.0Q197 0 212.5 0.0Q228 0 239.0 11.0Q250 22 250 38V88Q250 93 246.5 96.5Q243 100 237.5 100.0Q232 100 228.5 96.5Q225 93 225 88V38Q225 32 221.5 28.5Q218 25 212.5 25.0Q207 25 203.5 28.5Q200 32 200 37V75Q200 80 196.5 84.0Q193 88 188 88H88Q82 87 78.5 83.5Q75 80 75 75V38Q75 32 71.5 28.5Q68 25 62.5 25.0Q57 25 53.5 28.5Q50 32 50 37V150Q50 156 52 162Q64 150 81.0 150.0Q98 150 110.0 160.5Q122 171 125 188H165L169 167Q163 159 163.0 149.5Q163 140 170.0 132.5Q177 125 188 125H238Q248 125 255.5 132.5Q263 140 263.0 149.5Q263 159 256 167L270 238Q280 240 288.0 246.5Q296 253 299 262Q301 267 298.0 271.0Q295 275 290 275ZM185 250H240Q244 250 247 251L232 175H193L178 251Q181 250 185 250Z"/></g></svg>
