<svg xmlns="http://www.w3.org/2000/svg" viewBox="0 0 300 300"><g transform="translate(0 300) scale(1 -1)"><path fill="#000000" d="M295 252Q288 262 275 263H231Q234 269 236.5 277.5Q239 286 236.5 292.5Q234 299 225 300Q220 300 216.5 296.5Q213 293 212 288Q213 277 205.5 269.5Q198 262 187 262H113Q102 263 95.0 270.0Q88 277 88 287Q88 293 84.0 296.5Q80 300 75 300Q66 299 63.5 292.5Q61 286 63.5 277.5Q66 269 69 263H25Q12 262 4.5 252.0Q-3 242 1 230Q12 201 38 186L75 35Q76 20 87.0 10.0Q98 0 113 0H188Q202 0 213.0 10.0Q224 20 225 35L262 186Q288 201 299 230Q303 242 295 252ZM230 200Q217 201 204.5 196.5Q192 192 182.5 183.0Q173 174 168.0 162.5Q163 151 163 138V75H138V138Q137 151 132.0 162.5Q127 174 117.5 183.0Q108 192 95.5 196.5Q83 201 70 200Q83 223 104 238H196Q217 223 230 200ZM25 238H67Q55 225 47 210Q32 220 25 238ZM75 175Q82 175 88 173Q86 163 93.0 155.5Q100 148 110 150Q112 144 113 138V75Q102 75 93 69L66 176Q70 175 75 175ZM188 25H113Q107 25 103.5 28.5Q100 32 100.0 37.5Q100 43 103.5 46.5Q107 50 113 50H188Q193 50 196.5 46.5Q200 43 200.0 37.5Q200 32 196.5 28.5Q193 25 188 25ZM208 69Q198 75 188 75V138Q188 144 190 150Q200 148 207.0 155.5Q214 163 212 173Q223 176 234 176ZM253 210Q245 225 233 238H275Q269 220 253 210Z"/></g></svg>
