<svg xmlns="http://www.w3.org/2000/svg" viewBox="0 0 300 300"><g transform="translate(0 300) scale(1 -1)"><path fill="#000000" d="M296 71 293 74Q273 95 244 99Q250 119 250 137Q271 138 285.5 152.5Q300 167 300 188V245Q299 260 289 270Q283 276 268.0 285.0Q253 294 242 299Q238 302 233.5 298.0Q229 294 232 289Q241 275 245 262Q233 265 217 275Q212 277 208.5 273.0Q205 269 207 264Q212 253 221.0 238.0Q230 223 236 217Q244 209 254.5 207.0Q265 205 275 208V188Q275 177 267.5 170.0Q260 163 250 162H247Q236 200 187 209V225Q187 230 183.5 234.0Q180 238 175.0 238.0Q170 238 166.0 234.0Q162 230 162 225V212H150H137V225Q137 230 133.5 234.0Q130 238 125.0 237.5Q120 237 116.0 233.5Q112 230 112 225V209Q64 200 53 163H50Q40 163 32.5 170.0Q25 177 25 187V208Q35 205 45.5 207.0Q56 209 64 217Q70 223 79.0 238.0Q88 253 93 264Q95 269 91.5 273.0Q88 277 83 275Q67 265 55 262Q58 275 68 289Q71 294 66.5 298.0Q62 302 58 299Q47 294 32.0 285.0Q17 276 11 270Q1 260 0 245V188Q0 167 14.5 152.5Q29 138 50 138Q50 120 57 99Q28 96 7 74L4 71Q0 68 0.0 62.5Q0 57 3.5 53.5Q7 50 12.5 50.0Q18 50 21 54L24 57Q43 75 68 75Q79 57 93 48Q79 36 65 21Q62 17 62.5 11.5Q63 6 66.5 3.0Q70 0 75.5 0.0Q81 0 85 5Q96 18 108.0 28.0Q120 38 125 38H175Q180 38 192.0 28.0Q204 18 215 5Q219 0 224.5 0.0Q230 0 233.5 3.0Q237 6 237.5 11.5Q238 17 235 21Q222 36 208 47Q222 57 233 75Q258 74 276 57L279 54Q282 50 287.5 50.0Q293 50 296.5 53.5Q300 57 300.0 62.5Q300 68 296 71ZM177 63H123Q109 63 97 77Q87 89 81.0 107.5Q75 126 75 139Q75 161 88 172Q105 187 150.0 187.5Q195 188 212 172Q225 161 225 139Q225 124 219.5 106.0Q214 88 204 76Q192 62 177 62Z"/></g></svg>
