<svg xmlns="http://www.w3.org/2000/svg" viewBox="0 0 300 300"><g transform="translate(0 300) scale(1 -1)"><path fill="#000000" d="M300 223Q296 245 274 257Q271 277 254 290Q244 297 232.0 299.5Q220 302 208.5 299.0Q197 296 188.0 288.0Q179 280 174 269Q172 262 171 255Q167 230 152 214L3 33Q0 29 0.5 24.0Q1 19 4.5 15.5Q8 12 13.0 12.0Q18 12 22 17L39 37H111L126 7Q130 0 138 0Q140 0 143 1Q148 4 149.5 8.5Q151 13 149 18L139 38Q154 40 170 46L189 7Q192 0 200 0Q203 0 206 1Q210 4 212.0 8.5Q214 13 211 18L192 56Q224 75 243.5 107.5Q263 140 263 177V212H291Q295 212 298.0 215.5Q301 219 300 223ZM163 188V180Q163 163 154.5 148.0Q146 133 132.0 123.5Q118 114 101 113ZM244 233Q237 223 237 211V177Q238 147 222.5 120.5Q207 94 180.5 78.5Q154 63 124 63H60L81 89Q89 88 96 88Q121 88 142.0 100.5Q163 113 175.0 134.0Q187 155 187 180V223Q193 236 195 252Q196 256 198.0 260.5Q200 265 204.5 269.0Q209 273 214 275Q228 278 238.5 270.0Q249 262 249 248Q249 240 244 233Z"/></g></svg>
