<svg xmlns="http://www.w3.org/2000/svg" viewBox="0 0 300 300"><g transform="translate(0 300) scale(1 -1)"><path fill="#000000" d="M285 243Q278 246 270.5 244.5Q263 243 257 238L225 205L168 263Q160 270 150.0 270.0Q140 270 132 263L75 205L43 238Q37 243 29.5 244.5Q22 246 15.0 243.0Q8 240 4.0 233.5Q0 227 0 220V88Q0 71 8.5 56.5Q17 42 31.5 33.5Q46 25 63 25H238Q254 25 268.5 33.5Q283 42 291.5 56.5Q300 71 300 87V220Q300 227 296.0 233.5Q292 240 285 243ZM275 88Q275 72 264.0 61.0Q253 50 237 50H63Q47 50 36.0 61.0Q25 72 25 88V220L66 179Q70 175 75.0 175.0Q80 175 84 179L150 245L216 179Q220 175 225.0 175.0Q230 175 234 179L275 220Z"/></g></svg>
