<svg xmlns="http://www.w3.org/2000/svg" viewBox="0 0 300 300"><g transform="translate(0 300) scale(1 -1)"><path fill="#000000" d="M293 212Q277 228 259 238Q267 245 271.0 254.5Q275 264 275 275Q275 280 271.5 284.0Q268 288 262.5 288.0Q257 288 253.5 284.0Q250 280 250 275Q250 265 242.5 257.5Q235 250 225 250H219Q206 250 196.5 259.0Q187 268 187 281V288Q187 293 183.5 296.5Q180 300 175.0 300.0Q170 300 166.0 296.5Q162 293 162 287V281Q162 264 172 250H156Q143 250 134.0 259.0Q125 268 125 281V288Q125 293 121.5 296.5Q118 300 112.5 300.0Q107 300 103.5 296.5Q100 293 100 287V281Q100 258 116.5 241.5Q133 225 156 225H173Q167 217 164.5 208.0Q162 199 162 193V181Q162 179 160.5 177.0Q159 175 156 175H77Q55 175 40 160L3 121Q0 117 0.0 112.0Q0 107 3.5 103.5Q7 100 12.5 100.0Q18 100 22 104L26 108Q27 97 34 79L37 67V38Q37 22 48.0 11.0Q59 0 74.5 0.0Q90 0 101.0 11.0Q112 22 112 38V50H150V38Q150 22 161.0 11.0Q172 0 187.5 0.0Q203 0 214.0 11.0Q225 22 225 38V64Q234 75 240 89Q250 110 250 133V158L276 161Q286 162 293.0 169.5Q300 177 300 188Q300 205 293 212ZM273 185 247 182Q238 181 231.5 174.0Q225 167 225 158V133Q225 112 215 93Q209 84 204 78Q200 74 200 69V38Q200 32 196.5 28.5Q193 25 187.5 25.0Q182 25 178.5 28.5Q175 32 175 38V63Q175 68 171.5 71.5Q168 75 163 75H100Q95 75 91.5 71.5Q88 68 87 62V38Q88 32 84.0 28.5Q80 25 75.0 25.0Q70 25 66.5 28.5Q63 32 63 38V69L62 72L57 87Q54 98 52 103Q50 112 50.0 123.0Q50 134 58.0 142.0Q66 150 77 150H156Q169 150 178.5 159.0Q188 168 188 181V193Q188 202 192 210Q201 225 223 225Q233 225 247.5 216.0Q262 207 274 195Q275 192 275 187Q275 186 273 185Z"/></g></svg>
