<svg xmlns="http://www.w3.org/2000/svg" viewBox="0 0 300 300"><g transform="translate(0 300) scale(1 -1)"><path fill="#000000" d="M281 219Q275 219 271 215Q256 230 245 237Q253 244 258.0 254.0Q263 264 263 275Q263 280 259.0 284.0Q255 288 250.0 287.5Q245 287 241.5 283.5Q238 280 238 275Q238 265 230.5 257.5Q223 250 213 250H206Q193 250 184.0 259.0Q175 268 175 281V288Q175 293 171.5 296.5Q168 300 162.5 300.0Q157 300 153.5 296.5Q150 293 150 288V281Q150 264 160 250H144Q131 250 121.5 259.0Q112 268 112 281V288Q113 293 109.0 296.5Q105 300 100.0 300.0Q95 300 91.5 296.5Q88 293 88 288V281Q88 258 104.0 241.5Q120 225 144 225H160Q155 217 152.5 208.0Q150 199 150 193V181Q150 179 148.0 177.0Q146 175 144 175H77Q67 175 57.0 171.0Q47 167 40 160L3 121Q0 117 0.0 112.0Q0 107 3.5 103.5Q7 100 12.5 100.0Q18 100 22 104L26 108Q27 97 34 79L38 67V38Q38 22 49.0 11.0Q60 0 75.5 0.0Q91 0 102.0 11.0Q113 22 113 38V50H138V38Q138 22 149.0 11.0Q160 0 175.5 0.0Q191 0 202.0 11.0Q213 22 213 38V64Q222 75 228 89Q238 110 238 133V158L258 161Q266 162 272.5 167.5Q279 173 281 181Q289 181 294.5 186.5Q300 192 300.0 200.0Q300 208 294.5 213.5Q289 219 281 219ZM254 185 234 183Q225 181 219.0 174.0Q213 167 213 158V133Q213 112 202 93Q197 84 191 78Q188 74 188 69V38Q188 32 184.0 28.5Q180 25 175.0 25.0Q170 25 166.5 28.5Q163 32 163 38V63Q163 68 159.0 71.5Q155 75 150 75H100Q95 75 91.5 71.5Q88 68 88 62V38Q88 32 84.0 28.5Q80 25 75.0 25.0Q70 25 66.5 28.5Q63 32 63 38V69Q63 72 57 87Q53 98 52 104Q50 113 50.0 123.5Q50 134 58.0 142.0Q66 150 77 150H144Q157 150 166.0 159.0Q175 168 175 181V193Q175 202 180 210Q189 225 211 225Q221 225 234 215Q242 209 255 195Q256 192 256 187Q256 186 254 185Z"/></g></svg>
