<svg xmlns="http://www.w3.org/2000/svg" viewBox="0 0 300 300"><g transform="translate(0 300) scale(1 -1)"><path fill="#000000" d="M270 238Q264 238 261 243Q257 252 248.5 257.5Q240 263 230 263H212V290Q212 295 208.0 298.0Q204 301 200 300Q189 296 182.0 286.0Q175 276 175 264V242L163 208L161 205L32 298Q28 301 23.0 300.0Q18 299 15.0 295.0Q12 291 13.0 285.5Q14 280 18 277L126 200H87Q68 200 51 188Q42 192 35 199Q25 210 25 225Q25 230 21.5 234.0Q18 238 12.5 238.0Q7 238 3.5 234.0Q0 230 0 225Q0 204 12 188Q20 177 34 169Q25 154 25 138V37Q25 22 36.0 11.0Q47 0 62.5 0.0Q78 0 89.0 11.0Q100 22 100 37V63H163V38Q163 22 174.0 11.0Q185 0 200.5 0.0Q216 0 227.0 11.0Q238 22 238 38V72Q238 80 239 88L252 150Q272 151 286.0 165.5Q300 180 300 200V206Q300 222 290 231Q281 238 270 238ZM87 88Q82 88 78.5 84.0Q75 80 75 75V37Q75 32 71.5 28.5Q68 25 62.5 25.0Q57 25 53.5 28.5Q50 32 50 37V138Q50 153 61.0 164.0Q72 175 87 175H137V88ZM213 72V38Q213 32 209.0 28.5Q205 25 200.0 25.0Q195 25 191.0 28.5Q187 32 187 38V75Q187 80 183.5 84.0Q180 88 175 88H162V173L225 139L215 93Q213 83 212 72ZM275 200Q275 190 267.5 182.5Q260 175 250 175Q244 175 239.0 172.0Q234 169 231 164L182 191Q185 196 186 200L200 238H230Q236 238 239 232Q243 223 251.5 218.0Q260 213 270 213Q275 213 275 206Z"/></g></svg>
