<svg xmlns="http://www.w3.org/2000/svg" viewBox="0 0 300 300"><g transform="translate(0 300) scale(1 -1)"><path fill="#000000" d="M270 238Q264 238 261 243Q257 252 248.5 257.0Q240 262 230 262H213V290Q212 295 208.0 298.0Q204 301 200 299Q189 295 182.0 285.5Q175 276 175 264V244L163 208Q162 205 158.5 202.5Q155 200 151 200H87Q67 200 51 188Q42 192 35 199Q25 210 25 225Q25 230 21.5 233.5Q18 237 12.5 237.5Q7 238 3.5 234.0Q0 230 0 225Q0 204 12 188Q20 177 34 169Q25 154 25 137V37Q25 22 36.0 11.0Q47 0 62.5 0.0Q78 0 89.0 11.0Q100 22 100 37V62H163V37Q163 22 174.0 11.0Q185 0 200.5 0.0Q216 0 227.0 11.0Q238 22 238 37V72Q238 80 239 88L252 150Q272 151 286.0 165.5Q300 180 300 200V206Q300 222 290 230Q281 238 270 238ZM275 200Q275 190 267.5 182.5Q260 175 250 175Q242 175 236.0 170.0Q230 165 228 158L215 93Q213 83 213 72V37Q213 32 209.0 28.5Q205 25 200.0 25.0Q195 25 191.0 28.5Q187 32 187 37V75Q187 80 183.5 83.5Q180 87 175 87H87Q82 87 78.5 83.5Q75 80 75 75V37Q75 32 71.5 28.5Q68 25 62.5 25.0Q57 25 53.5 28.5Q50 32 50 37V137Q50 153 61.0 164.0Q72 175 87 175H151Q163 175 172.5 182.0Q182 189 186 200L200 238H230Q236 238 239 232Q243 223 251.5 218.0Q260 213 270 213Q275 213 275 206Z"/></g></svg>
