<svg xmlns="http://www.w3.org/2000/svg" viewBox="0 0 300 300"><g transform="translate(0 300) scale(1 -1)"><path fill="#000000" d="M274 213Q271 236 258.0 256.0Q245 276 223 287Q199 300 169 300Q127 300 94 280Q59 296 16 300Q11 300 6.0 296.5Q1 293 0.0 287.5Q-1 282 3 279Q29 258 46 230Q25 192 25 138Q25 101 38 62Q24 55 14.0 43.0Q4 31 0 16Q-1 9 3.5 4.0Q8 -1 14 0Q39 4 56 19Q65 27 69 34L72 30Q76 24 81 20Q89 13 98 8Q110 2 124 0Q130 -1 134.5 4.0Q139 9 137 16Q133 32 121.5 44.5Q110 57 95 64Q97 80 102.5 96.0Q108 112 117 124Q130 144 153 153Q161 141 166 118Q167 114 170.5 113.0Q174 112 178.0 114.0Q182 116 184 119Q193 143 196 162L275 163Q285 163 292.5 170.0Q300 177 300.0 187.5Q300 198 292.5 205.5Q285 213 274 213ZM201 188Q166 188 139.5 175.0Q113 162 96 138Q86 124 79.5 105.5Q73 87 70 69L63 68Q50 105 50 137Q50 196 76 231Q96 258 129 268Q149 275 169 275Q195 275 215 264Q232 253 241.0 236.0Q250 219 250 200Q250 195 253.5 191.5Q257 188 263 187H201Z"/></g></svg>
