<svg xmlns="http://www.w3.org/2000/svg" viewBox="0 0 300 300"><g transform="translate(0 300) scale(1 -1)"><path fill="#000000" d="M291 250 274 258Q269 284 248 295Q230 304 210.5 297.5Q191 291 182 273L169 250Q155 256 139 265Q130 270 115 279L108 284Q103 287 97.0 287.5Q91 288 86.0 285.0Q81 282 78.0 277.0Q75 272 75 265V263L59 281Q55 286 49.0 287.0Q43 288 37.0 286.0Q31 284 28.0 279.0Q25 274 25 267Q27 227 37 189Q52 133 83 98L23 95Q12 94 5.5 85.5Q-1 77 0 67Q3 49 16 31Q30 12 51 3Q58 0 65.5 0.0Q73 0 80 4L130 30Q140 35 150.0 31.5Q160 28 167 27Q178 25 191 25Q214 25 233.0 36.5Q252 48 263.5 67.0Q275 86 275 109V217L291 224Q295 226 297.5 229.5Q300 233 300.0 237.0Q300 241 297.5 244.5Q295 248 291 250ZM100 259Q134 237 157 228L149 213Q128 217 104 235Q101 245 100 259ZM191 50Q180 50 172 52Q166 53 157.5 56.0Q149 59 138.5 58.0Q128 57 119 52L69 26Q65 24 61 26Q47 32 37.0 45.0Q27 58 25 70L113 74Q116 75 119.0 77.0Q122 79 124.0 82.5Q126 86 125.0 90.5Q124 95 120 98Q86 123 68 174Q55 209 51 252Q75 225 95 211Q126 189 156 188Q159 187 162.5 189.0Q166 191 167 194L204 261Q208 270 218.0 273.5Q228 277 237 272Q250 266 250 245V109Q250 93 242.0 79.5Q234 66 220.5 58.0Q207 50 191 50Z"/></g></svg>
