<svg xmlns="http://www.w3.org/2000/svg" viewBox="0 0 300 300"><g transform="translate(0 300) scale(1 -1)"><path fill="#000000" d="M275 69Q275 45 259 29Q246 14 222 7Q202 0 181 0H156Q119 0 82.5 21.5Q46 43 23.0 76.5Q0 110 0 144Q0 194 26 237H7Q2 237 0.5 241.0Q-1 245 2 249Q17 264 35.0 277.5Q53 291 66 299Q70 301 74.0 299.0Q78 297 78 292Q78 262 68 212Q67 207 61.5 206.5Q56 206 55 211L46 231L40 216Q32 199 30 188Q25 169 25.0 144.5Q25 120 45 96Q63 73 91.0 58.5Q119 44 144 44Q159 44 171 48Q188 53 188 62Q188 68 182.5 73.5Q177 79 167 85L126 75Q122 74 120.0 77.0Q118 80 119 83L134 107L126 112H81Q77 112 75.5 116.0Q74 120 77 123L100 139Q96 145 94 150L56 153Q52 154 51.0 158.0Q50 162 53 164L88 184Q90 201 95 212Q97 216 102.0 218.0Q107 220 111.5 217.5Q116 215 118.0 210.5Q120 206 118 201Q114 194 113 181Q113 159 130 142Q140 132 167 115Q190 101 198 93Q213 79 213 63Q213 49 205.0 39.5Q197 30 183 25Q195 25 209 29Q226 33 237 42Q250 53 250 69Q249 92 235 111Q222 127 189 153Q185 156 184.5 161.0Q184 166 187.0 170.0Q190 174 195.0 175.0Q200 176 204 172Q228 154 240 142Q257 126 265 110Q274 91 275 69ZM250 238H288Q293 238 296.5 241.5Q300 245 300.0 250.0Q300 255 296.5 259.0Q293 263 288 263H244Q240 268 233.0 271.5Q226 275 219 275H210Q201 284 197 294L196 296Q194 300 192.0 300.0Q190 300 188.5 298.5Q187 297 187 295Q187 282 189 270Q180 275 157 295L152 299Q149 301 146.0 299.0Q143 297 143 294Q145 286 152 273Q158 261 164 252Q150 254 118 260L106 262Q102 263 100.5 260.0Q99 257 101 254Q110 245 126 235Q145 223 164 217Q159 212 155.5 201.5Q152 191 150 182Q149 178 152.0 176.0Q155 174 159 176L166 181Q179 190 186 194Q198 200 206 200Q227 200 245 192Q257 187 267 178Q270 175 275.5 175.0Q281 175 284.5 179.0Q288 183 287.5 188.0Q287 193 283 197Q262 216 232 222Q233 232 241 236Q246 238 250 238Z"/></g></svg>
