<svg xmlns="http://www.w3.org/2000/svg" viewBox="0 0 300 300"><g transform="translate(0 300) scale(1 -1)"><path fill="#000000" d="M182 50Q182 50 181.5 50.0Q181 50 182 50ZM216 124Q229 110 228.0 92.0Q227 74 213.5 62.0Q200 50 182 50Q155 51 124 69Q113 75 112.5 87.0Q112 99 121 106Q140 120 151 126Q170 137 184 137Q203 138 216 124ZM198 107Q193 113 184.5 113.0Q176 113 162 104Q154 100 140 89Q151 83 158 80Q169 76 180 75Q189 75 196.0 79.5Q203 84 203.5 92.5Q204 101 198 107ZM300 222Q300 218 297.5 214.5Q295 211 291 209L257 196Q253 186 246 178Q261 161 273 140Q287 113 287 91Q287 63 273 41Q261 22 239.5 11.0Q218 0 195 0H108Q77 0 53.0 12.5Q29 25 15.0 48.0Q1 71 0 100Q0 111 2.0 129.5Q4 148 7 159Q9 165 14.0 169.5Q19 174 26.0 175.0Q33 176 39.0 173.0Q45 170 49 164L52 158Q63 138 68 137Q78 138 95.0 150.5Q112 163 128 180Q113 200 112 225Q112 245 122.5 262.5Q133 280 150.0 290.0Q167 300 187 300Q213 300 232.5 285.0Q252 270 259 246L291 235Q295 233 297.5 229.5Q300 226 300 222ZM138 225Q138 204 152.5 189.5Q167 175 187.5 175.0Q208 175 223.0 189.5Q238 204 238.0 225.0Q238 246 223.0 260.5Q208 275 187.5 275.0Q167 275 152.5 260.5Q138 246 138 225ZM227 161Q209 150 187.0 150.0Q165 150 146 163Q129 144 112 132Q87 113 68 113Q55 113 44 125Q38 131 30 147Q27 137 26.0 122.5Q25 108 25 100Q26 67 49.0 46.0Q72 25 108 25H195Q210 25 225 31Q241 39 251 52Q262 69 262 91Q262 108 250 130Q240 148 227 161Z"/></g></svg>
