<svg xmlns="http://www.w3.org/2000/svg" viewBox="0 0 300 300"><g transform="translate(0 300) scale(1 -1)"><path fill="#000000" d="M287 100Q282 100 278.5 96.5Q275 93 275 88V51Q275 46 272.0 42.0Q269 38 264.0 37.5Q259 37 254.5 40.5Q250 44 250 50V182Q250 199 242.0 213.5Q234 228 220 238Q211 264 187.0 277.5Q163 291 136 286Q111 282 94 262H75Q55 262 37.5 252.0Q20 242 10.0 225.0Q0 208 0 188V50Q0 34 11.0 23.0Q22 12 37.5 12.0Q53 12 64.0 23.0Q75 34 75 50V62H125V50Q125 35 136.0 23.5Q147 12 162.5 12.0Q178 12 189.0 23.0Q200 34 200 50V62H225V50Q225 33 238 21Q249 13 263 13H268Q282 15 291.0 26.0Q300 37 300 51V87Q300 93 296.5 96.5Q293 100 287 100ZM188 88Q183 88 179.0 84.0Q175 80 175 75V50Q175 45 171.5 41.0Q168 37 163.0 37.5Q158 38 154.0 41.5Q150 45 150 50V75Q150 80 146.5 84.0Q143 88 138 87H63Q57 87 53.5 83.5Q50 80 50 75V50Q50 45 46.5 41.0Q43 37 37.5 37.0Q32 37 28.5 41.0Q25 45 25 50V188Q25 208 39.5 223.0Q54 238 75 238H79L77 229Q73 212 77.0 195.5Q81 179 91.5 165.5Q102 152 117.5 145.0Q133 138 150 138Q155 138 158.5 141.5Q162 145 162.0 150.0Q162 155 158.5 158.5Q155 162 150 162Q139 163 128.5 167.5Q118 172 111 181Q96 200 101 224Q103 233 110 242Q122 257 140.0 261.5Q158 266 174.0 257.0Q190 248 197 230Q200 222 206 217Q215 211 220.0 201.5Q225 192 225 181V87H188Z"/></g></svg>
