<svg xmlns="http://www.w3.org/2000/svg" viewBox="0 0 300 300"><g transform="translate(0 300) scale(1 -1)"><path fill="#000000" d="M150 100Q129 100 114.5 114.5Q100 129 100.0 150.0Q100 171 114.5 185.5Q129 200 150.0 200.0Q171 200 185.5 185.5Q200 171 200.0 150.0Q200 129 185.5 114.5Q171 100 150 100ZM150 175Q140 175 132.5 167.5Q125 160 125.0 150.0Q125 140 132.5 132.5Q140 125 150.0 125.0Q160 125 167.5 132.5Q175 140 175.0 150.0Q175 160 167.5 167.5Q160 175 150 175ZM150 0Q129 0 112.0 12.5Q95 25 90 46Q70 41 50.5 49.5Q31 58 21.0 76.0Q11 94 13.0 114.5Q15 135 30 151Q14 166 12.5 186.5Q11 207 21.0 225.0Q31 243 49.5 252.0Q68 261 90 255Q96 275 112.5 287.5Q129 300 150.0 300.0Q171 300 187.5 287.5Q204 275 210 255Q232 260 250.5 251.5Q269 243 279.0 225.0Q289 207 287.5 186.5Q286 166 270 150Q286 134 287.5 114.0Q289 94 279.0 76.5Q269 59 250.5 50.0Q232 41 210 46Q205 25 188.0 12.5Q171 0 150 0ZM100 75Q105 75 108.5 71.5Q112 68 112 62Q113 47 123.5 36.0Q134 25 150.0 25.0Q166 25 177.0 36.0Q188 47 188 62Q187 70 193.5 73.5Q200 77 206 73Q222 66 236.0 71.0Q250 76 257.5 88.5Q265 101 262.0 115.5Q259 130 244 139Q238 143 238.0 150.0Q238 157 244 161Q259 170 262.0 184.5Q265 199 257.5 212.5Q250 226 236.0 230.5Q222 235 206 227Q200 223 193.5 226.5Q187 230 187 237Q188 253 177.0 264.0Q166 275 150.0 275.0Q134 275 123.0 264.0Q112 253 113 237Q113 230 106.5 226.5Q100 223 94 227Q78 235 64.0 230.5Q50 226 42.5 213.0Q35 200 38.0 185.0Q41 170 56 162Q62 158 62.0 150.5Q62 143 56 140Q41 130 38.0 116.0Q35 102 42.5 89.0Q50 76 64.0 71.0Q78 66 94 73Q97 75 100 75Z"/></g></svg>
