<svg xmlns="http://www.w3.org/2000/svg" viewBox="0 0 300 300"><g transform="translate(0 300) scale(1 -1)"><path fill="#000000" d="M278 111Q240 117 208 102Q182 89 162 63V116Q167 118 169 121Q181 134 185 148Q198 146 214 149Q225 151 231.0 161.0Q237 171 233 182Q229 196 222 206Q229 216 233 229Q237 240 231.0 250.0Q225 260 214 263Q198 266 186 264Q182 278 169 291Q162 300 150.0 300.0Q138 300 131 291Q118 278 114 264Q102 266 86 263Q75 260 69.0 250.5Q63 241 67 229Q71 216 78 206Q71 196 67 183Q63 172 69.0 162.0Q75 152 86 149Q102 146 115 149Q119 134 131 121Q133 118 137 116V64Q118 89 92 102Q60 117 22 111Q12 109 6.0 101.0Q0 93 1 84Q5 48 32 27Q51 11 81 5Q103 0 129 0Q141 0 150.5 0.0Q160 0 172 0Q197 0 219 5Q249 11 269 27Q296 48 300 84Q301 93 294.5 101.0Q288 109 278 111ZM131 176Q128 178 125.0 178.0Q122 178 119 176Q109 170 91 174V175Q95 190 103 196Q108 200 108.0 206.0Q108 212 103 216Q95 222 91 237V238Q109 242 119 236Q125 233 131.0 236.0Q137 239 137 246L138 251Q138 262 149 275H151Q163 262 163 250V247Q163 240 169.0 236.5Q175 233 181 236Q191 242 209 238V237Q205 222 197 216Q192 212 192.0 206.0Q192 200 197 196Q205 190 209 175V174Q191 170 181 176Q175 179 169.0 175.5Q163 172 163 165V163Q163 151 151 137H149Q138 151 138 163V165Q138 172 131 176ZM47 46Q28 61 26 86Q35 87 44 87Q78 87 103 65Q121 49 132 25Q110 24 91 28Q63 33 47 46ZM253 46Q237 33 210 28Q190 24 168 25Q181 53 202 69Q233 93 275 86Q272 61 253 46ZM150 187Q142 187 136.5 192.5Q131 198 131.0 206.0Q131 214 136.5 219.5Q142 225 150.0 225.0Q158 225 163.5 219.5Q169 214 169.0 206.0Q169 198 163.5 192.5Q158 187 150 187Z"/></g></svg>
