<svg xmlns="http://www.w3.org/2000/svg" viewBox="0 0 300 300"><g transform="translate(0 300) scale(1 -1)"><path fill="#000000" d="M294 116Q290 121 284.5 123.0Q279 125 273 125Q240 122 211.0 106.0Q182 90 163 63V126Q190 131 207.5 152.0Q225 173 225 200Q225 224 210 248Q199 266 177 289Q166 300 150.0 300.0Q134 300 123 289Q101 266 90 248Q75 224 75 200Q75 173 92.5 152.0Q110 131 138 126V63Q118 90 89.0 106.0Q60 122 27 125Q21 125 15.5 123.0Q10 121 6.0 116.0Q2 111 0.5 105.0Q-1 99 1 94Q12 53 50 29Q77 11 115 4Q135 0 150 0Q165 0 185 4Q223 11 250 29Q288 53 299 94Q301 99 299.5 105.0Q298 111 294 116ZM100 200Q100 215 111 233Q118 247 131 260Q138 269 142 272L141 271Q131 243 127 224Q120 188 138 188Q143 188 146.5 191.5Q150 195 150 200Q151 234 166 264Q181 247 190 234Q200 216 200 200Q200 179 185.5 164.5Q171 150 150.0 150.0Q129 150 114.5 164.5Q100 179 100 200ZM25 100Q59 97 87.5 77.5Q116 58 131 27Q97 31 72 45Q35 65 25 100ZM169 27Q184 58 212.5 77.5Q241 97 275 100Q265 65 228 45Q203 31 169 27Z"/></g></svg>
