<svg xmlns="http://www.w3.org/2000/svg" viewBox="0 0 300 300"><g transform="translate(0 300) scale(1 -1)"><path fill="#000000" d="M291 295Q281 302 269 299Q251 295 237.5 282.5Q224 270 217 253Q184 262 150.0 262.0Q116 262 82 253Q76 270 62.5 282.5Q49 295 31 299Q19 302 9.5 294.5Q0 287 0 275V177Q0 149 10.5 124.0Q21 99 40 80L98 21Q113 7 131.5 2.5Q150 -2 168.5 2.5Q187 7 202 21L260 80Q279 99 289.5 124.0Q300 149 300 177V275Q300 287 291 295ZM63 234Q65 229 69.5 226.5Q74 224 79 226Q114 237 150.0 237.0Q186 237 221 226Q226 224 230.5 226.5Q235 229 237 234Q249 269 275 275V198Q252 193 232 182Q202 166 185 141Q162 108 162 63V60Q150 65 138 60V63Q138 108 115 141Q98 166 68 182Q48 193 25 198V275Q51 269 63 234ZM58 97Q43 112 34.5 131.5Q26 151 25 172Q38 169 50 163Q53 147 66.0 136.5Q79 126 95 125Q113 97 113 63V43ZM242 97 188 43V63Q187 97 205 125Q221 126 234.0 136.5Q247 147 250 162V163Q262 169 275 172Q274 151 265.5 131.5Q257 112 242 97Z"/></g></svg>
