<svg xmlns="http://www.w3.org/2000/svg" viewBox="0 0 300 300"><g transform="translate(0 300) scale(1 -1)"><path fill="#000000" d="M285 187Q293 193 297.0 201.5Q301 210 300.0 220.0Q299 230 294.0 238.5Q289 247 281 252Q266 260 236 268Q232 282 220.5 291.0Q209 300 194.5 300.0Q180 300 169.0 292.0Q158 284 153 272Q76 235 36 178Q6 134 0 83Q-2 67 3.0 52.0Q8 37 18.5 25.0Q29 13 44.0 6.5Q59 0 75 0H188Q193 0 196.5 3.5Q200 7 200.0 12.5Q200 18 196.5 21.5Q193 25 187 25H163V63Q162 85 167 119L236 12Q239 6 244.5 3.0Q250 0 257 0H275Q280 0 284.0 3.5Q288 7 288.0 12.5Q288 18 284.0 21.5Q280 25 275 25H257L178 150Q180 151 182 151Q213 154 240.5 163.5Q268 173 285 187ZM194 275Q202 275 207.5 269.5Q213 264 213.0 256.0Q213 248 207.5 242.5Q202 237 194.0 237.0Q186 237 180.5 242.5Q175 248 175.0 256.0Q175 264 180.5 269.5Q186 275 194 275ZM146 145Q143 128 141 111Q130 124 114.5 130.5Q99 137 81 137H75Q70 138 66.5 134.0Q63 130 63.0 125.0Q63 120 66.5 116.5Q70 113 75 113H81Q105 113 121.0 96.5Q137 80 137 56V25H75Q64 25 54.0 29.5Q44 34 37 42Q23 58 25 80Q31 131 63.5 172.5Q96 214 152 243Q156 230 167.5 221.0Q179 212 193.5 212.5Q208 213 219.5 221.0Q231 229 235 242Q258 236 268 230Q274 226 274.5 218.5Q275 211 270 206Q253 193 227 185Q204 178 180 176Q167 175 158.0 166.5Q149 158 146 145Z"/></g></svg>
