<svg xmlns="http://www.w3.org/2000/svg" viewBox="0 0 300 300"><g transform="translate(0 300) scale(1 -1)"><path fill="#000000" d="M150 175Q125 175 100 170V199L162 225Q168 227 171.5 232.5Q175 238 175.5 244.5Q176 251 173.5 257.0Q171 263 166 267L111 297Q105 300 98.5 300.0Q92 300 86.5 296.5Q81 293 78.0 287.5Q75 282 75 275V164Q41 152 20.5 132.0Q0 112 0.0 87.5Q0 63 20.0 43.0Q40 23 74.5 11.5Q109 0 150.0 0.0Q191 0 225.5 11.5Q260 23 280.0 43.0Q300 63 300.0 87.5Q300 112 280.0 132.0Q260 152 225.5 163.5Q191 175 150 175ZM151 247 100 226V275ZM150 25Q117 25 88.0 33.5Q59 42 42.0 56.5Q25 71 25.0 86.5Q25 102 38.5 115.0Q52 128 75 137V88Q75 82 78.5 78.5Q82 75 87.5 75.0Q93 75 96.5 78.5Q100 82 100 88V145Q125 150 150 150Q183 150 212.0 141.5Q241 133 258.0 118.5Q275 104 275.0 87.5Q275 71 258.0 56.5Q241 42 212.0 33.5Q183 25 150 25ZM213 88Q213 77 205.5 70.0Q198 63 187.5 63.0Q177 63 170.0 70.0Q163 77 163.0 87.5Q163 98 170.0 105.0Q177 112 187.5 112.0Q198 112 205.0 105.0Q212 98 212 88Z"/></g></svg>
