<svg xmlns="http://www.w3.org/2000/svg" viewBox="0 0 300 300"><g transform="translate(0 300) scale(1 -1)"><path fill="#000000" d="M275 175Q275 191 266.0 203.5Q257 216 242.5 221.5Q228 227 213.0 223.0Q198 219 188 208Q178 219 163 223Q164 243 172 256Q179 268 188.5 272.5Q198 277 205.0 274.0Q212 271 213 263Q207 263 203.5 259.0Q200 255 200.0 250.0Q200 245 203.5 241.0Q207 237 212 237Q223 238 230.0 245.0Q237 252 237 263Q236 280 226.0 289.5Q216 299 201.5 300.0Q187 301 173.0 292.5Q159 284 150 268Q146 276 137 285Q127 296 119 299Q108 303 101 293Q99 288 100.5 283.5Q102 279 107 276Q134 263 137 223Q122 219 112 208Q102 220 86.0 223.5Q70 227 55.0 220.5Q40 214 32.0 200.0Q24 186 25.5 170.0Q27 154 38.0 141.5Q49 129 65 126Q62 116 63.0 106.0Q64 96 69.5 87.0Q75 78 83.5 72.0Q92 66 102 64Q98 48 103.0 33.0Q108 18 121.0 9.0Q134 0 150.0 0.0Q166 0 179.0 9.0Q192 18 197.0 33.0Q202 48 198 64Q208 66 216.5 72.0Q225 78 230.5 87.0Q236 96 237.0 106.0Q238 116 235 126Q253 130 264.0 143.5Q275 157 275 175ZM150 200Q160 200 167.5 192.5Q175 185 175.0 175.0Q175 165 167.5 157.5Q160 150 150.0 150.0Q140 150 132.5 157.5Q125 165 125.0 175.0Q125 185 132.5 192.5Q140 200 150 200ZM50 175Q50 185 57.5 192.5Q65 200 75.0 200.0Q85 200 92.5 192.5Q100 185 100.0 175.0Q100 165 92.5 157.5Q85 150 75.0 150.0Q65 150 57.5 157.5Q50 165 50 175ZM88 113Q88 122 94 129Q105 133 113 142Q120 133 131 129Q137 122 137.5 114.0Q138 106 133.5 99.0Q129 92 121.0 89.0Q113 86 105.0 88.5Q97 91 92.0 97.5Q87 104 88 113ZM150 25Q143 25 137.0 29.0Q131 33 127.5 39.5Q124 46 125.5 53.5Q127 61 131 66Q142 71 150 80Q158 71 169 66Q174 61 175.0 53.5Q176 46 173.0 39.5Q170 33 163.5 29.0Q157 25 150 25ZM188 88Q180 88 174.0 92.0Q168 96 165.0 102.5Q162 109 163.0 116.0Q164 123 169 129Q180 133 188 142Q195 133 206 129Q211 123 212.0 116.0Q213 109 210.0 102.5Q207 96 201.0 92.0Q195 88 187 88ZM225 150Q215 150 207.5 157.5Q200 165 200.0 175.0Q200 185 207.5 192.5Q215 200 225.0 200.0Q235 200 242.5 192.5Q250 185 250.0 175.0Q250 165 242.5 157.5Q235 150 225 150Z"/></g></svg>
