<svg xmlns="http://www.w3.org/2000/svg" viewBox="0 0 300 300"><g transform="translate(0 300) scale(1 -1)"><path fill="#000000" d="M191 125H247Q269 125 284.5 140.5Q300 156 300 178Q300 190 295.0 200.5Q290 211 281 219V225Q281 246 269 263Q277 263 282.0 268.0Q287 273 287.5 281.0Q288 289 282.5 294.5Q277 300 269.0 300.0Q261 300 255.5 294.5Q250 289 250 281V279Q236 288 219.0 288.0Q202 288 187 279V281Q188 289 182.5 294.5Q177 300 169.0 300.0Q161 300 155.5 294.5Q150 289 150.0 281.0Q150 273 155.5 268.0Q161 263 169 263Q160 251 158 238H113Q85 238 62.0 224.5Q39 211 26.0 188.0Q13 165 13 137Q13 122 17 107L2 81Q-1 77 0.5 72.0Q2 67 5.5 65.0Q9 63 12 62Q20 63 23 69L30 81Q39 69 50 60V37Q50 22 61.0 11.0Q72 0 87.5 0.0Q103 0 114.0 11.0Q125 22 125 37H163Q163 22 174.0 11.0Q185 0 200.5 0.0Q216 0 227.0 11.0Q238 22 238 37V59Q249 68 257 80Q260 85 259.0 90.0Q258 95 254.0 98.0Q250 101 245.0 100.0Q240 99 237 95Q229 84 218 76Q213 72 213 66V38Q213 32 209.0 28.5Q205 25 200.0 25.0Q195 25 191.0 28.5Q187 32 187 38V50Q188 55 184.0 59.0Q180 63 175 63H113Q107 63 103.5 59.0Q100 55 100 50V38Q100 32 96.5 28.5Q93 25 87.5 25.0Q82 25 78.5 28.5Q75 32 75 38V66Q75 73 70 76Q52 88 44 108Q43 111 42 113Q38 125 38 138Q38 158 48.0 175.0Q58 192 75.0 202.5Q92 213 113 213H150Q138 198 138 178Q138 156 153.5 140.5Q169 125 191 125ZM219 263Q234 263 245.0 252.0Q256 241 256 225V213Q256 206 262.0 202.0Q268 198 271.5 192.0Q275 186 275.0 178.5Q275 171 271.5 165.0Q268 159 263 155V163Q263 168 259.0 171.5Q255 175 250.0 175.0Q245 175 241.5 171.5Q238 168 238 163V150H200V163Q200 168 196.5 171.5Q193 175 187.5 175.0Q182 175 178.5 171.5Q175 168 175 163V155Q169 159 165.5 165.0Q162 171 162.0 178.5Q162 186 165.5 192.0Q169 198 175.0 202.0Q181 206 181 213V225Q181 241 192.0 252.0Q203 263 219 262Z"/></g></svg>
