<svg xmlns="http://www.w3.org/2000/svg" viewBox="0 0 300 300"><g transform="translate(0 300) scale(1 -1)"><path fill="#000000" d="M61 169Q61 169 60.5 169.0Q60 169 61 169ZM300 192Q300 183 293.5 176.0Q287 169 278 167L250 164V139Q250 126 248.5 115.5Q247 105 242 90L238 67V37Q238 22 227.0 11.0Q216 0 200.5 0.0Q185 0 173.5 11.0Q162 22 162 37V50H142L140 33Q138 19 127.5 9.5Q117 0 103 0Q86 0 75.0 12.5Q64 25 66 42L69 61L64 76Q58 95 55 105Q50 122 50 135Q25 115 25 62Q25 57 21.5 53.5Q18 50 12.5 50.0Q7 50 3.5 53.5Q0 57 0 62Q0 110 20 139Q36 160 61 169Q62 169 61 169Q68 177 78.5 182.5Q89 188 100 187H144Q146 188 148.0 189.5Q150 191 150 194Q150 217 161 237Q175 264 201 272Q203 281 209.0 288.5Q215 296 223 299Q228 301 233.0 298.0Q238 295 237 289V262Q247 232 285 215Q292 212 296.0 206.0Q300 200 300 192ZM275 192Q230 212 216 249Q191 246 181 221Q175 208 175.0 194.5Q175 181 166.0 172.0Q157 163 144 163H100Q90 163 82.5 155.5Q75 148 75.0 137.5Q75 127 79 111Q82 102 88 84L94 66Q95 63 94 61L91 39Q90 33 94.0 29.0Q98 25 103.0 25.0Q108 25 111.5 28.0Q115 31 115 36L119 64Q119 69 122.5 72.0Q126 75 131 75H175Q180 75 183.5 71.5Q187 68 187 63V37Q187 32 191.0 28.5Q195 25 200.0 25.0Q205 25 208.5 28.5Q212 32 212 37L213 71L218 96Q222 110 223.5 119.0Q225 128 225 139V164Q225 173 231.5 180.5Q238 188 247 189Z"/></g></svg>
