<svg xmlns="http://www.w3.org/2000/svg" viewBox="0 0 300 300"><g transform="translate(0 300) scale(1 -1)"><path fill="#000000" d="M169 138Q161 137 155.5 142.5Q150 148 150.0 156.0Q150 164 155.5 169.5Q161 175 169.0 175.0Q177 175 182.5 169.5Q188 164 187.5 156.0Q187 148 182.0 142.5Q177 137 169 137ZM279 126Q274 130 272 133Q256 148 242 170Q233 182 219 207Q209 225 203 233Q195 245 188 252V290Q188 295 183.5 298.0Q179 301 174 300Q161 296 151.0 285.5Q141 275 138 261Q88 256 54 227Q26 202 12 164Q0 133 0 100V13Q0 7 3.5 3.5Q7 0 12.5 0.0Q18 0 21.5 3.5Q25 7 25 13V100Q25 120 31 142Q42 181 67 205Q103 238 162 238Q169 238 179 224Q185 216 197 194H198Q212 169 221 155Q237 132 254 115L262 108Q273 98 274.5 83.0Q276 68 267 57L266 55Q263 51 258.5 50.0Q254 49 249 52L233 60Q189 83 169 96Q164 100 157.0 99.5Q150 99 145.0 94.5Q140 90 138.5 84.0Q137 78 139 71Q146 55 160 30L174 6Q178 0 185 0Q188 0 192.0 2.5Q196 5 197.0 10.0Q198 15 196 19Q181 43 169 67Q187 56 221 38L238 30Q250 23 263.5 26.0Q277 29 286 40L287 41Q302 61 299.5 85.5Q297 110 279 126Z"/></g></svg>
