<svg xmlns="http://www.w3.org/2000/svg" viewBox="0 0 300 300"><g transform="translate(0 300) scale(1 -1)"><path fill="#000000" d="M285 215Q266 224 254.0 238.0Q242 252 238 269V289Q238 295 233.5 298.0Q229 301 224 299Q215 296 209.0 288.5Q203 281 201 271Q175 263 161 237Q150 216 150 194V188H100Q88 187 76.0 182.0Q64 177 59 168Q34 160 19 139Q0 111 0 62Q0 57 3.5 53.5Q7 50 12.5 50.0Q18 50 21.5 53.5Q25 57 25 62Q25 115 50 135Q50 123 56 107Q59 97 66 80Q71 67 73 61L70 43Q68 26 79.0 13.0Q90 0 107 0Q121 0 131.5 9.0Q142 18 144 32L147 50H162V37Q162 22 173.0 11.0Q184 0 200.0 0.0Q216 0 226.5 11.0Q237 22 237 37V67L242 90Q246 105 248.0 115.5Q250 126 250 139V164L278 167Q287 169 293.5 176.0Q300 183 300.0 191.5Q300 200 296.0 206.0Q292 212 285 215ZM125 70 120 36Q119 31 115.5 28.0Q112 25 107.0 25.0Q102 25 98.0 29.5Q94 34 95 39L98 61Q99 63 98 66Q96 73 89 89V90Q79 114 76 126Q72 145 81 155Q88 163 100 163V138Q100 125 107.0 115.5Q114 106 125 102ZM138 125Q132 125 128.5 128.5Q125 132 125 138V163H150V138Q150 132 146.5 128.5Q143 125 137 125ZM247 189Q238 188 231.5 180.5Q225 173 225 164V139Q225 128 223.5 119.0Q222 110 218 96L213 69V37Q213 32 209.0 28.5Q205 25 200.0 25.0Q195 25 191.5 28.5Q188 32 187 37V63Q188 68 184.0 71.5Q180 75 175 75H150V102Q161 106 168.0 115.5Q175 125 175 138V194Q175 208 181 221Q192 246 218 249Q231 212 275 192Z"/></g></svg>
