<svg xmlns="http://www.w3.org/2000/svg" viewBox="0 0 300 300"><g transform="translate(0 300) scale(1 -1)"><path fill="#000000" d="M94 0Q71 0 51.0 10.5Q31 21 17.5 39.5Q4 58 1.0 81.0Q-2 104 5.5 125.0Q13 146 29.5 162.0Q46 178 69.5 184.5Q93 191 117 185L216 283Q224 291 234.5 295.5Q245 300 256 300Q274 300 287.0 287.0Q300 274 300 256Q300 245 295.5 234.5Q291 224 283 216L275 207Q268 200 257 200H238V188Q238 177 230.5 170.0Q223 163 212 163H200V143Q200 132 193 125L185 117Q191 93 184 68Q176 41 154.0 22.5Q132 4 104 1ZM94 163Q67 163 47.5 145.0Q28 127 25.5 100.5Q23 74 39.0 52.5Q55 31 81.0 26.0Q107 21 130.0 35.0Q153 49 160 75Q166 96 159 116Q156 124 162 129L175 143V163Q175 173 182.5 180.0Q190 187 200 187H213V200Q213 210 220.0 217.5Q227 225 238 225H257L266 233Q275 243 275 256Q275 264 269.5 269.5Q264 275 256 275Q243 275 233 266L129 162Q124 156 116 159Q105 162 94 162ZM63 75Q63 70 66.5 66.5Q70 63 75.0 63.0Q80 63 83.5 66.5Q87 70 87.5 75.0Q88 80 84.0 83.5Q80 87 75.0 87.5Q70 88 66.5 84.0Q63 80 63 75Z"/></g></svg>
