<svg xmlns="http://www.w3.org/2000/svg" viewBox="0 0 300 300"><g transform="translate(0 300) scale(1 -1)"><path fill="#000000" d="M225 244Q225 236 219.5 230.5Q214 225 206.0 225.0Q198 225 192.5 230.5Q187 236 187.0 244.0Q187 252 192.5 257.5Q198 263 206.0 262.5Q214 262 219.5 257.0Q225 252 225 244ZM299 94Q299 91 297.0 89.0Q295 87 292.5 87.5Q290 88 288.5 89.5Q287 91 286 93Q283 116 274 138Q259 173 234 195Q227 191 221 189Q216 188 214.5 184.0Q213 180 213 175V160Q213 130 197.0 104.0Q181 78 156 64L162 14Q163 9 160.0 5.0Q157 1 152 0Q139 0 138 11L132 53Q123 51 114 50H106L95 51L100 14Q101 9 97.5 5.0Q94 1 88.5 0.5Q83 0 79.5 3.0Q76 6 75 11L69 57Q48 65 31.5 81.0Q15 97 7.0 119.0Q-1 141 0 164Q2 190 17.5 213.0Q33 236 57.5 249.0Q82 262 110 262H120Q145 263 167 284Q172 289 177 292Q191 301 208.0 300.0Q225 299 238 290Q249 283 255.0 272.0Q261 261 262.0 248.5Q263 236 259 224Q274 202 284 175Q298 136 299 94ZM237 246Q236 261 224 270Q217 275 207.5 275.0Q198 275 190 271Q187 269 184 266Q155 237 120 237H110Q89 237 70.0 227.0Q51 217 39.0 199.5Q27 182 25.5 163.0Q24 144 30.0 127.5Q36 111 48.5 98.5Q61 86 77.5 80.0Q94 74 113.0 75.5Q132 77 149.5 89.0Q167 101 177.0 120.0Q187 139 187 160V175Q187 189 194.5 199.5Q202 210 214 214Q222 216 228 222Q239 232 237 246Z"/></g></svg>
