<svg xmlns="http://www.w3.org/2000/svg" viewBox="0 0 300 300"><g transform="translate(0 300) scale(1 -1)"><path fill="#000000" d="M291 210 276 221 287 261Q290 273 281.5 281.5Q273 290 260 287L222 276L215 291Q207 301 195.0 300.5Q183 300 177 289L148 237L127 276Q122 285 111.5 287.0Q101 289 92 282L77 266L59 284Q56 287 52.5 287.5Q49 288 45.5 286.5Q42 285 40.0 282.0Q38 279 38 275V250H21Q9 250 3.0 240.0Q-3 230 3 218L38 158Q41 152 38 147L16 119Q10 109 14.5 98.0Q19 87 32 84L63 81L4 21Q0 18 0.0 12.5Q0 7 3.5 3.5Q7 0 12.5 0.0Q18 0 21 4L81 63L85 31Q87 19 98.0 14.5Q109 10 119 16L147 38Q152 41 157 39L219 2Q224 0 229.5 0.0Q235 0 240 3Q250 9 250 21V38H275Q279 38 282.0 40.0Q285 42 286.5 45.5Q288 49 287.5 52.5Q287 56 284 59L266 78L282 94Q289 103 287.0 113.5Q285 124 274 130L237 146L290 173Q300 179 300.0 191.0Q300 203 291 210ZM218 164Q209 157 209.5 145.0Q210 133 220 126L261 109L239 87Q236 83 236.0 78.0Q236 73 239 69L246 62H237Q232 62 228.5 58.5Q225 55 225 50V28L168 61Q161 64 152.0 64.0Q143 64 134 59L109 39L103 86L159 141Q163 145 163.0 150.0Q163 155 159.0 158.5Q155 162 150.0 162.0Q145 162 141 159L86 103L39 109L59 134Q64 142 64.0 151.0Q64 160 60 169L28 225H50Q55 225 59.0 228.5Q63 232 63 238V246L69 239Q73 236 78.5 236.0Q84 236 87 240L107 261L129 220Q135 210 147.0 209.5Q159 209 166 218L196 272L204 256Q206 252 210.5 250.0Q215 248 219 249L261 261L249 219Q248 215 249.5 211.5Q251 208 254 205L273 192Z"/></g></svg>
