<svg xmlns="http://www.w3.org/2000/svg" viewBox="0 0 300 300"><g transform="translate(0 300) scale(1 -1)"><path fill="#000000" d="M283 209Q284 210 285 211Q300 227 300.0 248.5Q300 270 285.0 285.0Q270 300 248.5 300.0Q227 300 211 285L209 283L207 285Q191 300 169.5 300.0Q148 300 133.0 284.5Q118 269 118 247L107 248Q84 248 68.0 232.0Q52 216 52 194L47 192Q32 187 22.5 173.5Q13 160 13 143Q13 130 26 104Q35 87 49 67L4 21Q0 18 0.0 12.5Q0 7 3.5 3.5Q7 0 12.5 0.0Q18 0 21 4L67 49Q87 35 104 26Q130 13 143 13Q160 13 173.5 22.5Q187 32 192 47L194 52Q216 52 231.5 68.0Q247 84 247 107V116L248 118Q270 118 285.0 133.0Q300 148 300.0 169.5Q300 191 285 207L283 210ZM266 191Q275 181 275.0 169.5Q275 158 267.0 150.5Q259 143 248.0 143.0Q237 143 229.0 134.5Q221 126 222 114L223 107Q223 94 214.0 85.5Q205 77 193 77Q184 77 177.5 71.5Q171 66 168.5 56.5Q166 47 159.0 42.5Q152 38 144.5 38.0Q137 38 120.0 46.5Q103 55 85 67L171 154Q175 157 175.0 162.5Q175 168 171.5 171.5Q168 175 162.5 175.0Q157 175 154 171L67 85Q55 103 46.5 120.0Q38 137 38.0 144.5Q38 152 42.5 159.0Q47 166 56.5 168.5Q66 171 71.5 177.5Q77 184 77 193Q77 205 85.5 213.5Q94 222 107 222L116 223Q127 222 135.0 229.0Q143 236 143.0 247.5Q143 259 150.5 267.0Q158 275 169.5 275.0Q181 275 191 266Q198 260 205 258Q217 255 229 267Q237 275 248.5 275.0Q260 275 267.5 267.0Q275 259 275.0 248.0Q275 237 267 229Q255 217 258 205Q260 198 266 191Z"/></g></svg>
