<svg xmlns="http://www.w3.org/2000/svg" viewBox="0 0 300 300"><g transform="translate(0 300) scale(1 -1)"><path fill="#000000" d="M225 138Q225 132 221.5 128.5Q218 125 212.5 125.0Q207 125 203.5 128.5Q200 132 200.0 137.5Q200 143 203.5 146.5Q207 150 212.5 150.0Q218 150 221.5 146.5Q225 143 225 138ZM188 188Q182 188 178.5 184.0Q175 180 175.0 175.0Q175 170 178.5 166.0Q182 162 187.5 162.5Q193 163 196.5 166.5Q200 170 200.0 175.0Q200 180 196.5 184.0Q193 188 188 188ZM238 188Q232 188 228.5 184.0Q225 180 225.0 175.0Q225 170 228.5 166.0Q232 162 237.5 162.5Q243 163 246.5 166.5Q250 170 250.0 175.0Q250 180 246.5 184.0Q243 188 238 188ZM294 226Q306 173 294.5 127.0Q283 81 251.0 49.0Q219 17 173.0 5.5Q127 -6 74 6Q69 8 64 7Q60 6 53 4Q43 0 38 0Q28 0 19.0 5.0Q10 10 5.0 18.5Q0 27 0.0 37.0Q0 47 4.5 56.0Q9 65 6 74Q-4 124 3 162Q12 211 48 252Q89 288 138 297Q176 304 226 294Q235 291 244.0 295.5Q253 300 263.0 300.0Q273 300 281.5 295.0Q290 290 295.0 281.0Q300 272 300 263Q300 257 296 247Q294 240 293 237Q292 231 294 226ZM273 257Q277 263 273.5 269.0Q270 275 262 275L256 273Q245 269 239 268Q229 267 220 270Q169 282 124.0 267.5Q79 253 52 217Q24 178 25 125Q24 114 28 92Q32 75 32 67Q32 53 27 44Q25 40 25.5 36.0Q26 32 29.0 29.0Q32 26 36.0 25.5Q40 25 43 27Q53 32 67 32Q75 31 92 28Q114 24 125 25Q152 25 176 33Q211 43 234.0 66.0Q257 89 267 124Q275 148 275 175Q276 186 272 208Q269 225 268 233Q268 247 273 257Z"/></g></svg>
