<svg xmlns="http://www.w3.org/2000/svg" viewBox="0 0 300 300"><g transform="translate(0 300) scale(1 -1)"><path fill="#000000" d="M291 227 283 234 274 243Q274 243 274 243Q266 268 244.5 284.0Q223 300 197 300Q169 300 142 288Q112 274 97 250Q94 245 94.0 239.5Q94 234 96 230Q101 222 110 219Q99 204 99 187Q99 177 102 166Q107 149 118 136Q123 131 128.5 129.5Q134 128 139.0 130.0Q144 132 147 135Q171 99 200 78V31Q200 29 198.0 27.0Q196 25 193.5 25.0Q191 25 189.5 27.0Q188 29 188 31V62Q188 68 184.0 71.5Q180 75 175 75H100Q95 75 91.5 71.5Q88 68 87 62V31Q88 29 86.0 27.0Q84 25 81.5 25.0Q79 25 77.0 27.0Q75 29 75 31V69L74 72L70 86Q66 98 65 104Q62 114 62 125Q63 134 67.5 141.0Q72 148 79 151Q84 152 86.0 157.0Q88 162 86.5 166.5Q85 171 80.5 173.5Q76 176 71 174Q61 171 53 163Q46 161 38 154Q24 143 15 125Q2 100 0 63Q0 58 3.5 54.0Q7 50 12.0 50.0Q17 50 21.0 53.5Q25 57 25 62Q27 94 38 115Q39 105 41 95Q43 89 46 78L50 67V31Q50 18 59.0 9.0Q68 0 81.0 0.0Q94 0 103.5 9.0Q113 18 113 31V50H163V31Q163 18 172.0 9.0Q181 0 194.0 0.0Q207 0 216.0 9.0Q225 18 225 31V89Q250 123 262 151Q278 153 289.0 165.0Q300 177 300 194V205Q300 218 291 227ZM206 105Q186 122 168 149Q155 169 152 179Q151 183 147.5 185.5Q144 188 140.0 187.5Q136 187 132.0 183.5Q128 180 128 175V168Q124 178 124.0 187.0Q124 196 130.0 205.5Q136 215 146 220Q150 222 151.5 226.0Q153 230 152.0 234.5Q151 239 148.0 241.5Q145 244 140 244H123Q136 259 158 267Q178 275 197 275Q210 275 221.0 269.5Q232 264 240 255Q223 250 211.5 236.0Q200 222 200.0 204.0Q200 186 210.0 172.0Q220 158 236 153Q225 131 206 105ZM275 194Q275 186 269.5 180.5Q264 175 256 175H253Q241 175 233.0 183.0Q225 191 225.0 202.5Q225 214 232.0 221.5Q239 229 249 231L266 216L273 209Q275 207 275 205Z"/></g></svg>
