<svg xmlns="http://www.w3.org/2000/svg" viewBox="0 0 300 300"><g transform="translate(0 300) scale(1 -1)"><path fill="#000000" d="M131 178Q131 172 126.5 167.5Q122 163 115.5 163.0Q109 163 104.5 167.5Q100 172 100.0 178.5Q100 185 104.5 189.5Q109 194 115.5 194.0Q122 194 126.5 189.5Q131 185 131 178ZM184 194Q178 194 173.5 189.5Q169 185 169.0 178.5Q169 172 173.5 167.5Q178 163 184.5 163.0Q191 163 195.5 167.5Q200 172 200.0 178.5Q200 185 195.5 189.5Q191 194 184 194ZM300 144V123Q300 117 296.5 111.5Q293 106 288.5 104.0Q284 102 279 102Q270 71 265 59L257 37Q254 31 249.0 27.5Q244 24 238.0 23.5Q232 23 226.5 26.0Q221 29 218 35Q186 13 169 4Q160 0 150.0 0.0Q140 0 131 4Q114 13 82 35Q79 29 73.5 26.0Q68 23 62.0 23.5Q56 24 51.0 27.0Q46 30 43 36L35 59Q30 71 21 102Q16 102 11.5 104.0Q7 106 3.5 111.5Q0 117 0 123V144Q0 173 11 203Q6 205 3.0 209.0Q0 213 0.0 218.5Q0 224 3 229Q12 245 31 262Q52 281 78 293Q95 300 113.5 300.0Q132 300 150 293Q168 300 186.5 300.0Q205 300 222 293Q246 282 267.0 264.0Q288 246 297 228Q300 223 299.5 217.5Q299 212 296.5 208.0Q294 204 290 202Q300 173 300 144ZM275 144Q275 177 259 211Q258 214 258.5 217.5Q259 221 261.5 224.0Q264 227 268 228Q258 240 243.5 251.0Q229 262 212 270Q199 275 184.0 275.0Q169 275 156 268Q150 265 144 268Q131 275 116.0 275.0Q101 275 88 270Q71 262 56.5 251.0Q42 240 32 228Q36 227 39 224Q44 218 41 211Q25 177 25 144V131Q29 133 33 132Q40 130 42 123Q47 103 52 86Q56 73 58 69L63 56V58Q65 64 71 66Q73 67 76.0 67.0Q79 67 82 64Q123 37 142 27Q150 23 158 27Q177 37 218 64Q223 68 229.0 66.0Q235 64 237 58V56L242 69Q244 73 248 86Q253 103 258 123Q260 130 267 132Q271 133 275 131ZM226 222Q226 222 226 222Q231 213 234 207Q237 197 237 188Q237 162 227 138L229 131Q231 121 228.0 111.5Q225 102 217 95L194 75Q180 63 161 63H139Q120 63 106 75L83 95Q75 102 72.0 111.5Q69 121 72 131L73 138Q63 162 63 187Q63 197 66 207Q69 213 74 222Q79 232 90.0 237.0Q101 242 113 240Q133 236 150 227Q167 236 188 240Q199 242 210.0 237.0Q221 232 226 222ZM202 146Q202 146 203 146Q205 151 208 159Q213 174 212 188Q213 193 211.0 197.5Q209 202 205 209Q203 213 199.5 214.5Q196 216 192 215Q172 212 157 202Q154 200 150.0 200.0Q146 200 143 202Q129 211 106 215Q99 215 95.0 208.5Q91 202 89.5 197.5Q88 193 88 188Q88 173 92 158Q95 151 98 146Q100 141 99 137L96 125Q94 118 99 114L123 94Q129 88 138 88V112L128 122Q125 125 125.0 128.5Q125 132 127.5 134.5Q130 137 134 137H166Q170 137 172.5 134.5Q175 132 175.0 128.5Q175 125 172 122L163 112V88Q171 88 177 94L201 114Q206 118 204 125L201 137Q200 141 203 146Z"/></g></svg>
