<svg xmlns="http://www.w3.org/2000/svg" viewBox="0 0 300 300"><g transform="translate(0 300) scale(1 -1)"><path fill="#000000" d="M289 295Q287 300 281 300Q281 300 281 300Q276 300 274.5 296.0Q273 292 270 282Q265 270 263 263Q260 270 255 282Q252 292 250.5 296.0Q249 300 244 300Q244 300 244 300Q238 300 237 295Q233 285 229.0 266.0Q225 247 225.0 237.0Q225 227 230.0 218.5Q235 210 244 205Q239 197 230.5 192.0Q222 187 212 187H200V228Q200 244 192.5 261.0Q185 278 173.5 289.0Q162 300 150.0 300.0Q138 300 126.5 289.0Q115 278 107.5 261.0Q100 244 100 228V188H88Q78 188 69.5 192.5Q61 197 56 205Q65 210 70.0 218.5Q75 227 75.0 237.0Q75 247 71.0 266.0Q67 285 64 295Q62 300 57.0 300.0Q52 300 50.0 296.0Q48 292 45 282Q40 270 38 263Q35 270 30 282Q27 292 25.0 296.0Q23 300 18.0 300.0Q13 300 12 295Q8 285 4.0 266.0Q0 247 0 237Q0 224 8.5 213.5Q17 203 30 201Q37 184 52.5 173.0Q68 162 88 162H100V138H89Q64 138 45 119L35 109Q31 105 31.0 100.0Q31 95 35.0 91.0Q39 87 44.0 87.0Q49 87 53 91L63 102Q74 113 89 112H100V69L83 51Q75 44 75.0 34.0Q75 24 84 15Q95 4 113 0Q133 -3 150 8Q163 0 178 0Q189 0 199.5 4.0Q210 8 216 15Q225 24 225.0 34.0Q225 44 217 51L200 69V113H211Q226 113 237 102L247 91Q251 88 256.0 87.5Q261 87 265.0 91.0Q269 95 269.0 100.0Q269 105 265 109L255 119Q236 138 211 138H200V163H212Q232 163 247.5 173.5Q263 184 270 201Q283 203 291.5 213.5Q300 224 300 238Q300 247 296.0 266.0Q292 285 288 295ZM125 228Q125 239 130 251Q134 260 140.5 267.5Q147 275 150.0 275.0Q153 275 159.5 267.5Q166 260 170.5 249.5Q175 239 175 227V188H125ZM125 163H175V138H125ZM125 113H175V88H125ZM159 33Q155 37 150.0 37.0Q145 37 141 33Q130 22 116 25Q106 28 100 34L129 63H171L200 34Q194 28 184 25Q170 22 159 33Z"/></g></svg>
