<svg xmlns="http://www.w3.org/2000/svg" viewBox="0 0 300 300"><g transform="translate(0 300) scale(1 -1)"><path fill="#000000" d="M275 256Q273 256 270 256Q263 275 245.5 287.5Q228 300 206.5 300.0Q185 300 167.5 287.5Q150 275 142 256H138Q127 256 120.0 249.0Q113 242 113.0 231.5Q113 221 120.0 213.5Q127 206 138 206L142 207Q147 193 157 183Q122 175 98 149Q76 127 64 94Q54 67 51 37Q39 46 32.0 59.0Q25 72 25 87V225Q25 248 38.5 261.5Q52 275 75 275Q80 275 84.0 278.5Q88 282 88.0 287.5Q88 293 84.0 296.5Q80 300 75 300Q41 300 20.5 279.5Q0 259 0 225V88Q0 64 12.0 44.0Q24 24 44.0 12.0Q64 0 88 0H263Q268 0 271.5 3.5Q275 7 275.0 12.5Q275 18 271.5 21.5Q268 25 263 25H250V175V178Q264 190 270 207L275 206Q285 206 292.5 213.5Q300 221 300.0 231.5Q300 242 292.5 249.0Q285 256 275 256ZM188 25V81Q188 89 193.0 94.5Q198 100 206.0 100.0Q214 100 219.5 94.5Q225 89 225 81V25ZM225 163V121Q216 125 206 125Q188 125 175.5 112.0Q163 99 163 81V25H88Q81 25 75 26Q77 51 84 75Q95 112 118 134Q147 163 194 162H225ZM206 188Q188 188 175.5 200.5Q163 213 163.0 231.0Q163 249 175.5 262.0Q188 275 206.0 275.0Q224 275 237.0 262.0Q250 249 250.0 231.0Q250 213 237.0 200.5Q224 188 206 188Z"/></g></svg>
