<svg xmlns="http://www.w3.org/2000/svg" viewBox="0 0 300 300"><g transform="translate(0 300) scale(1 -1)"><path fill="#000000" d="M188 0Q156 0 126.5 13.0Q97 26 76.0 49.5Q55 73 45.0 103.5Q35 134 38.5 166.5Q42 199 59.0 227.0Q76 255 103.5 274.0Q131 293 163.0 298.0Q195 303 226 296Q235 293 241.0 287.0Q247 281 249.0 273.0Q251 265 248.5 257.0Q246 249 240 243Q212 217 204.0 184.0Q196 151 208.0 118.5Q220 86 250 63Q257 57 260.0 49.0Q263 41 262.0 33.0Q261 25 255.5 18.0Q250 11 242 9Q215 0 187 0ZM188 275Q178 275 167 273Q140 269 117.5 253.5Q95 238 80.5 214.5Q66 191 63.0 164.0Q60 137 68.5 111.5Q77 86 95 66Q121 38 159.0 28.5Q197 19 233 32Q237 33 237.5 37.0Q238 41 235 43Q199 70 184.5 109.5Q170 149 180.0 190.0Q190 231 223 261Q226 263 225.0 266.5Q224 270 220 271Q205 275 188 275Z"/></g></svg>
