<svg xmlns="http://www.w3.org/2000/svg" viewBox="0 0 300 300"><g transform="translate(0 300) scale(1 -1)"><path fill="#000000" d="M150 0Q118 0 89.0 13.0Q60 26 39.0 50.0Q18 74 8.0 104.0Q-2 134 1.5 166.5Q5 199 22.0 227.0Q39 255 66.0 274.0Q93 293 125.5 298.0Q158 303 189 296Q197 293 203.0 287.0Q209 281 211.5 273.0Q214 265 211.5 257.0Q209 249 203 243Q175 217 166.5 184.0Q158 151 170.0 118.5Q182 86 213 63Q220 57 223.0 49.0Q226 41 224.5 33.0Q223 25 217.5 18.0Q212 11 204 9Q178 0 150 0ZM151 275Q141 275 130 273Q103 269 80.5 253.5Q58 238 43.5 214.5Q29 191 26.0 164.0Q23 137 31.0 111.5Q39 86 57 66Q84 38 121.5 28.5Q159 19 196 32Q199 33 199.5 36.5Q200 40 198 43Q161 70 146.5 109.5Q132 149 142.0 189.5Q152 230 186 261Q188 263 187.5 266.5Q187 270 183 271Q167 275 151 275ZM256 150Q252 150 248.5 152.5Q245 155 244 159L240 177L222 182Q218 183 215.0 186.5Q212 190 212.5 194.5Q213 199 215.5 202.0Q218 205 222 206L240 210L244 228Q245 232 248.5 234.5Q252 237 256.0 237.0Q260 237 263.5 234.5Q267 232 268 228L273 210L290 206Q295 205 297.5 201.5Q300 198 300.0 193.5Q300 189 297.5 186.0Q295 183 290 182L273 177L268 159Q267 155 264.0 152.5Q261 150 256 150ZM200 125Q200 120 203.5 116.5Q207 113 212.5 113.0Q218 113 221.5 116.5Q225 120 225.0 125.0Q225 130 221.5 134.0Q218 138 212.5 138.0Q207 138 203.5 134.0Q200 130 200 125ZM275 75Q275 70 278.5 66.5Q282 63 287.5 63.0Q293 63 296.5 66.5Q300 70 300.0 75.0Q300 80 296.5 83.5Q293 87 287.5 87.5Q282 88 278.5 84.0Q275 80 275 75Z"/></g></svg>
