<svg xmlns="http://www.w3.org/2000/svg" viewBox="0 0 300 300"><g transform="translate(0 300) scale(1 -1)"><path fill="#000000" d="M294 152Q286 168 268 172Q257 175 200 175H175L237 219Q243 224 246.5 231.0Q250 238 250 245V255Q250 257 252 259L271 279Q275 282 275.0 287.5Q275 293 271.5 296.5Q268 300 262.5 300.0Q257 300 254 296L234 277Q225 268 225 254V245Q225 242 223 240L174 205Q181 214 181 225Q181 233 177.0 240.5Q173 248 166 252L156 295Q155 300 150.0 300.0Q145 300 144 295L134 252Q127 248 123.0 240.5Q119 233 119 225Q119 214 126 206L78 240Q75 242 75 245V255Q75 268 66 277L46 296Q43 300 37.5 300.0Q32 300 28.5 296.5Q25 293 25.0 287.5Q25 282 29 279L48 259Q50 257 50 255V245Q50 237 53.5 230.5Q57 224 63 219L125 175H56Q38 174 32 172Q14 168 5.5 152.0Q-3 136 1.5 119.0Q6 102 22 93Q32 87 43 87Q49 87 55 89Q70 93 123 135L70 74Q62 65 62 53V41Q62 37 60 36L43 22Q38 19 37.5 14.0Q37 9 40.5 4.5Q44 0 49.0 0.0Q54 0 58 2L75 16Q81 20 84.5 26.5Q88 33 88 41V53Q88 56 89 57L138 114V62Q138 57 141.5 53.5Q145 50 150.0 50.0Q155 50 159.0 53.5Q163 57 163 62V114L211 57Q213 56 213 53V41Q213 33 216.0 26.5Q219 20 225 16L243 2Q246 0 251.0 0.0Q256 0 259.5 4.5Q263 9 262.5 14.0Q262 19 257 22L240 36Q238 37 238 41V53Q238 65 230 74L177 135Q230 93 245 89Q251 87 257 87Q268 87 278 93Q294 102 298.5 119.0Q303 136 294 152ZM48 113Q41 111 34.5 115.0Q28 119 26.0 126.0Q24 133 27.5 139.5Q31 146 38.0 148.0Q45 150 101 150Q57 116 48 113ZM274 126Q272 119 265.5 115.0Q259 111 251.0 113.5Q243 116 199 150Q255 150 262.0 148.0Q269 146 272.5 139.5Q276 133 274 126Z"/></g></svg>
