<svg xmlns="http://www.w3.org/2000/svg" viewBox="0 0 300 300"><g transform="translate(0 300) scale(1 -1)"><path fill="#000000" d="M225 275Q219 283 210 289Q199 297 185.5 299.0Q172 301 159 298Q142 294 130.0 281.0Q118 268 114 252Q108 225 123 203Q126 198 131 194Q102 184 82 162Q65 143 57 117Q50 95 50 75H38Q22 75 11.0 64.0Q0 53 0.0 37.5Q0 22 11.0 11.0Q22 0 38 0H150Q155 0 158.5 3.5Q162 7 162.5 12.5Q163 18 159.0 21.5Q155 25 150 25H38Q32 25 28.5 28.5Q25 32 25.0 37.5Q25 43 28.5 46.5Q32 50 37 50H250Q255 50 259.0 53.5Q263 57 263.0 62.5Q263 68 259.0 71.5Q255 75 250 75H238V138H275Q285 138 292.5 145.0Q300 152 300 162V185Q300 208 291.0 228.5Q282 249 265.0 262.0Q248 275 225 275ZM75 75Q75 86 79 100Q85 127 101 145Q123 170 160 174Q168 160 182.0 150.5Q196 141 213 139V75ZM275 163H225Q209 163 196.0 171.0Q183 179 178 193Q176 199 169 201Q153 203 144.0 216.5Q135 230 138 246Q141 256 148.0 263.5Q155 271 165 274Q170 275 175 275Q187 275 196 269Q210 259 212 242Q213 236 210.5 231.0Q208 226 210.0 221.0Q212 216 216.5 213.5Q221 211 226.0 213.0Q231 215 233 220Q237 228 237 237Q238 242 237 245V249Q255 243 266 223Q275 205 275 185Z"/></g></svg>
