<svg xmlns="http://www.w3.org/2000/svg" viewBox="0 0 300 300"><g transform="translate(0 300) scale(1 -1)"><path fill="#000000" d="M250 300H219Q195 300 178.5 283.5Q162 267 162 244V122Q143 138 119 138Q100 138 84.5 128.5Q69 119 59.5 103.0Q50 87 50.0 68.5Q50 50 59.5 34.5Q69 19 84.5 9.5Q100 0 118.5 0.0Q137 0 153.0 9.5Q169 19 178.5 34.5Q188 50 187 69V244Q188 257 197.0 266.0Q206 275 219 275H250Q255 275 259.0 278.5Q263 282 263.0 287.5Q263 293 259.0 296.5Q255 300 250 300ZM119 25Q101 25 88.0 38.0Q75 51 75.0 69.0Q75 87 88.0 100.0Q101 113 119.0 113.0Q137 113 150.0 100.0Q163 87 163.0 69.0Q163 51 150.0 38.0Q137 25 119 25Z"/></g></svg>
