<svg xmlns="http://www.w3.org/2000/svg" viewBox="0 0 300 300"><g transform="translate(0 300) scale(1 -1)"><path fill="#000000" d="M238 94Q238 86 232.5 80.5Q227 75 219.0 75.0Q211 75 205.5 80.5Q200 86 200.0 94.0Q200 102 205.5 107.5Q211 113 219.0 112.5Q227 112 232.5 107.0Q238 102 238 94ZM300 100Q300 73 286.5 50.0Q273 27 250.0 13.5Q227 0 200 0H109Q80 0 54.5 14.5Q29 29 14.5 54.5Q0 80 0 109Q0 173 36 227L42 236Q25 243 13.5 258.0Q2 273 0 292Q0 295 2.0 297.5Q4 300 7 300Q23 299 36 293Q47 289 55 281Q61 276 66 270L69 265Q69 266 72.5 271.0Q76 276 82 281Q90 289 101 293Q114 299 130 300Q133 300 135.5 297.5Q138 295 137 292Q135 271 120.5 254.5Q106 238 86 233L80 199Q76 176 75 154Q102 176 129.5 188.0Q157 200 181 200H205Q216 199 227 196L286 296Q288 299 291.0 300.0Q294 301 296.0 299.5Q298 298 299.0 295.5Q300 293 300 290L268 173Q283 159 291.5 140.0Q300 121 300 100ZM275 100Q275 120 265.0 137.5Q255 155 237.5 165.0Q220 175 200 175H181Q157 175 128.0 159.5Q99 144 71 116Q69 113 65.0 112.5Q61 112 57.5 113.5Q54 115 52.0 118.0Q50 121 50 125V138Q50 171 55 203L57 214Q42 191 33.5 164.0Q25 137 25 109Q25 86 36.5 67.0Q48 48 67.0 36.5Q86 25 109 25H200Q220 25 237.5 35.0Q255 45 265.0 62.5Q275 80 275 100Z"/></g></svg>
