<svg xmlns="http://www.w3.org/2000/svg" viewBox="0 0 300 300"><g transform="translate(0 300) scale(1 -1)"><path fill="#000000" d="M300 131V113Q300 92 292.5 72.5Q285 53 272 38Q268 34 263.0 34.0Q258 34 254.0 37.0Q250 40 250.0 45.5Q250 51 253 55Q264 67 269.5 81.5Q275 96 275 113V143Q265 134 251.5 129.5Q238 125 225 125Q220 125 216.0 128.5Q212 132 212.5 137.5Q213 143 216.5 146.5Q220 150 225 150Q241 150 254.5 159.0Q268 168 270 182Q266 203 259 218Q256 226 253.0 230.0Q250 234 250.5 239.0Q251 244 255.0 247.0Q259 250 264.0 249.5Q269 249 272.0 245.5Q275 242 282 226Q292 203 296 183Q300 159 300 131ZM232 98Q236 95 237.0 90.0Q238 85 235 81Q230 72 227.5 62.0Q225 52 225.0 37.0Q225 22 214.0 11.0Q203 0 188 0H125Q94 0 68.5 15.0Q43 30 28.0 56.0Q13 82 13 112V169Q0 184 0 203V220Q0 231 4.0 243.0Q8 255 13 263Q7 265 3.5 270.0Q0 275 0.0 282.0Q0 289 5.5 294.5Q11 300 18.0 300.0Q25 300 30.0 296.5Q35 293 37 287Q56 300 80 300H107Q131 300 151 287Q153 293 158.0 296.5Q163 300 170.0 300.0Q177 300 182.5 294.5Q188 289 188.0 282.0Q188 275 184.0 270.0Q180 265 175 263Q188 244 187 220V203Q187 191 182.5 181.0Q178 171 169 163Q181 152 185 130Q188 118 188 100Q188 95 184.0 91.5Q180 88 175.0 88.0Q170 88 166.0 91.5Q162 95 162 100Q163 122 159.0 133.0Q155 144 149.5 147.0Q144 150 134 150Q122 150 111.5 155.0Q101 160 94 169Q86 160 75.5 155.0Q65 150 53 150Q45 150 38 152V150Q38 132 47.5 118.0Q57 104 74.0 96.0Q91 88 112 88Q118 88 121.5 84.0Q125 80 125.0 75.0Q125 70 121.5 66.5Q118 63 112 63Q91 63 73.0 69.5Q55 76 41 88Q49 60 72.5 42.5Q96 25 125 25H188Q193 25 196.5 28.5Q200 32 200 37Q200 55 203 66Q206 81 215 94Q217 99 222.5 100.0Q228 101 232 98ZM53 175Q64 175 72.5 183.0Q81 191 81 202Q75 205 75.0 211.5Q75 218 78.5 221.5Q82 225 88 225H100Q105 225 109.0 221.5Q113 218 113.0 211.5Q113 205 106 202Q107 191 115.0 183.0Q123 175 134.5 175.0Q146 175 154.5 183.0Q163 191 163 203V213H144Q139 212 135.0 216.0Q131 220 131.0 225.0Q131 230 135.0 233.5Q139 237 144 237H160Q154 254 139.5 264.5Q125 275 107 275H80Q62 275 48.0 264.5Q34 254 28 238H44Q49 238 52.5 234.0Q56 230 56.0 225.0Q56 220 52.5 216.5Q49 213 44 213H25V203Q25 191 33.0 183.0Q41 175 53 175Z"/></g></svg>
