<svg xmlns="http://www.w3.org/2000/svg" viewBox="0 0 300 300"><g transform="translate(0 300) scale(1 -1)"><path fill="#000000" d="M106 163Q116 163 122.5 168.0Q129 173 134 183Q143 200 141 223Q138 244 127.5 256.5Q117 269 102 269H101Q100 273 100 277Q100 284 102 293Q102 297 99.0 299.0Q96 301 93 299Q74 283 75 264Q75 261 76 257L73 253Q64 238 66.0 216.0Q68 194 80.0 178.5Q92 163 106 163ZM94 240Q97 244 101.5 244.0Q106 244 110.5 237.5Q115 231 116 221Q117 205 112 194Q109 189 106.0 189.0Q103 189 98 196Q92 205 90.5 218.5Q89 232 94 240ZM195 164Q210 164 221.5 179.0Q233 194 235.5 216.0Q238 238 229 253Q227 256 224 259L225 264Q226 283 207 299Q204 301 201.0 299.0Q198 297 198 293Q200 284 200 277Q200 273 199 269Q184 269 173.5 256.0Q163 243 161 223Q159 200 168.5 182.0Q178 164 195 164ZM186 221Q187 231 191.0 237.5Q195 244 200.0 244.0Q205 244 207 240Q212 232 210.5 218.5Q209 205 203 196Q199 189 196.0 189.0Q193 189 190 195Q184 205 186 221ZM62 118Q70 134 68 155Q66 173 55.5 184.5Q45 196 31 196Q26 205 25.5 213.5Q25 222 27 231Q27 235 24.0 237.0Q21 239 18 236Q-1 220 0 202Q1 190 7 181V182V181Q-2 168 0.0 148.0Q2 128 13.0 114.0Q24 100 38.5 100.0Q53 100 62 118ZM40 129Q39 128 38.0 126.5Q37 125 37 125Q35 126 30.5 132.5Q26 139 25.0 150.5Q24 162 28 168Q30 171 32 171H33Q36 171 39.0 166.0Q42 161 43 152Q45 138 40 129ZM31 196Q31 196 31 196ZM282 236Q279 239 276.0 237.0Q273 235 273 231Q275 222 275 214Q275 205 269 196Q254 197 244.0 185.5Q234 174 232.0 153.5Q230 133 238 118Q243 109 248.5 104.5Q254 100 263 100Q276 100 287.0 113.5Q298 127 300.0 147.0Q302 167 294 180Q296 185 298.0 191.5Q300 198 300 202Q301 220 282 236ZM275 150Q274 140 269 132Q266 126 264.0 126.0Q262 126 260 129Q255 138 257 152Q258 160 261.0 165.5Q264 171 267 171H268Q270 171 272 168Q276 162 275 150ZM150 138Q124 138 101.0 124.5Q78 111 64.0 89.5Q50 68 50 44Q50 24 60.5 12.0Q71 0 90 0Q99 0 117 6Q127 9 133 10Q142 13 150.0 13.0Q158 13 167 10Q173 9 183 6Q201 0 210 0Q229 0 239.5 12.0Q250 24 250 44Q250 68 236.0 89.5Q222 111 199.0 124.5Q176 138 150 138ZM210 25Q205 25 191 30Q179 33 172 35Q161 38 150.0 38.0Q139 38 128 35Q121 33 109 30Q95 25 89.0 25.0Q83 25 79.0 29.0Q75 33 75 44Q75 61 86.0 77.0Q97 93 114.0 103.0Q131 113 150.0 113.0Q169 113 186.0 103.0Q203 93 214.0 77.0Q225 61 225 44Q225 33 221.0 29.0Q217 25 210 25Z"/></g></svg>
