<svg xmlns="http://www.w3.org/2000/svg" viewBox="0 0 300 300"><g transform="translate(0 300) scale(1 -1)"><path fill="#000000" d="M187 114Q187 100 173 100Q168 100 163 102Q150 106 137 102Q126 98 119.0 101.5Q112 105 112 114Q112 128 124.0 139.0Q136 150 150.0 150.0Q164 150 175.5 139.0Q187 128 187 114ZM195 175Q190 175 186.0 170.5Q182 166 181 158Q180 146 185.5 140.5Q191 135 197.0 139.0Q203 143 205 156Q205 164 202.5 169.0Q200 174 195 175ZM104 175Q99 174 96.0 169.0Q93 164 94 156Q95 143 101.5 139.0Q108 135 113.0 140.5Q118 146 117 158Q116 166 112.5 170.5Q109 175 104 175ZM145 184Q144 192 140.5 196.5Q137 201 132.0 200.0Q127 199 124.0 194.0Q121 189 122 181Q123 168 129.5 164.0Q136 160 141.0 165.5Q146 171 145 184ZM178 181Q179 189 176.0 194.0Q173 199 168.0 200.0Q163 201 159.5 196.5Q156 192 155 184Q154 171 159.0 165.5Q164 160 170.5 164.0Q177 168 178 181ZM300 203Q300 174 280 138Q264 107 235 74Q210 46 184 25Q169 13 149.0 13.0Q129 13 113 25Q89 45 64 74Q36 106 20 137Q0 174 0 203Q0 226 11.5 245.5Q23 265 42.5 276.0Q62 287 85 287Q104 288 121.0 279.5Q138 271 150 256Q162 271 179.0 279.0Q196 287 215 287Q238 288 257.5 276.5Q277 265 288.5 245.5Q300 226 300 203ZM275 203Q275 219 267.0 232.5Q259 246 245.5 254.5Q232 263 215 263Q202 263 189.5 256.5Q177 250 169 239Q162 231 150.0 231.0Q138 231 131 239Q123 250 110.5 256.0Q98 262 85 262Q68 263 54.5 254.5Q41 246 33.0 232.5Q25 219 25 203Q25 179 42 147Q57 120 83 90Q106 64 129 45Q138 37 149.0 37.0Q160 37 168 44Q195 66 219.5 94.5Q244 123 259 150Q275 181 275 203Z"/></g></svg>
