<svg xmlns="http://www.w3.org/2000/svg" viewBox="0 0 300 300"><g transform="translate(0 300) scale(1 -1)"><path fill="#000000" d="M102 200Q91 200 82 207Q64 224 63 248Q61 270 70.5 284.0Q80 298 94.5 299.5Q109 301 120 292Q136 278 137.5 255.5Q139 233 129.5 216.5Q120 200 102 200ZM98 275Q93 274 90.0 267.5Q87 261 88 251Q88 237 98 227Q100 225 103.0 225.0Q106 225 109.5 233.5Q113 242 112 254Q110 268 104 273Q101 275 98 275ZM40 125Q28 125 20 132Q2 149 0 173Q-2 195 8.0 209.0Q18 223 32.5 224.5Q47 226 58 217Q74 203 75.5 181.0Q77 159 67.0 142.0Q57 125 40 125ZM35 200Q30 199 27.0 192.5Q24 186 25 176Q26 162 36 152Q37 150 40.5 150.0Q44 150 47.5 158.5Q51 167 50 179Q48 193 41 198Q38 200 35 200ZM198 200Q188 200 179.0 208.0Q170 216 165.5 229.0Q161 242 163 256Q164 278 180 292Q191 301 205.5 299.5Q220 298 229.5 284.0Q239 270 237 248Q236 224 218 207Q209 200 198 200ZM188 254Q187 242 190.5 233.5Q194 225 197.0 225.0Q200 225 202 227Q212 237 212 251Q213 262 210.0 268.5Q207 275 202.0 275.0Q197 275 193.0 269.5Q189 264 188 254ZM260 125Q243 125 233.0 142.0Q223 159 225 181Q226 203 243 217Q253 226 267.5 224.5Q282 223 292.0 209.0Q302 195 300 173Q298 149 280 132Q272 125 260 125ZM250 179Q249 167 252.5 158.5Q256 150 259.5 150.0Q263 150 264 152Q274 162 275 176Q276 186 273.0 192.5Q270 199 265 200Q264 200 260.5 199.0Q257 198 254.0 193.5Q251 189 250 179ZM200 0Q184 0 169 8Q160 12 150.0 12.0Q140 12 131 8Q112 -3 93.0 0.5Q74 4 62.0 20.5Q50 37 50 63Q50 90 66 117Q81 143 104.5 159.0Q128 175 150.0 175.0Q172 175 195.5 159.0Q219 143 234 117Q250 90 250.0 62.5Q250 35 236.0 17.5Q222 0 200 0ZM150 38Q166 38 180.0 30.5Q194 23 204.0 25.5Q214 28 219.5 38.5Q225 49 225 62Q225 83 213.0 103.5Q201 124 183.0 137.0Q165 150 150.0 150.0Q135 150 117.0 137.0Q99 124 87.0 103.5Q75 83 75 63Q75 49 80.5 38.5Q86 28 96.0 25.5Q106 23 120.0 30.5Q134 38 150 38Z"/></g></svg>
