<svg xmlns="http://www.w3.org/2000/svg" viewBox="0 0 300 300"><g transform="translate(0 300) scale(1 -1)"><path fill="#000000" d="M106 150Q98 150 92.5 155.5Q87 161 87.5 169.0Q88 177 93.0 182.5Q98 188 106.0 187.5Q114 187 119.5 182.0Q125 177 125.0 169.0Q125 161 119.5 155.5Q114 150 106 150ZM300 264Q295 231 275 195Q287 168 287 137Q287 100 268.5 68.5Q250 37 218.5 18.5Q187 0 150.0 0.0Q113 0 81.5 18.5Q50 37 31.5 68.5Q13 100 13 137Q12 168 25 195Q6 229 1 264Q-1 278 8 289Q13 294 19.5 297.0Q26 300 33 300Q60 299 76 295Q100 288 115 270Q132 275 150.0 275.0Q168 275 185 270Q200 288 224 295Q241 299 268 300Q283 300 293.0 289.0Q303 278 300 264ZM25 267Q29 245 40 221Q60 246 89 261Q79 268 65 272Q53 274 32 275Q29 275 27 273Q25 270 25 267ZM263 138Q263 168 247.5 194.0Q232 220 206.5 235.0Q181 250 150.0 250.0Q119 250 93.5 235.0Q68 220 52.5 194.0Q37 168 37.5 137.5Q38 107 53.0 81.0Q68 55 93.5 40.0Q119 25 150.0 25.0Q181 25 206.5 40.0Q232 55 247.5 81.0Q263 107 263 137ZM274 273Q272 275 269 275Q248 274 236 272Q221 268 211 261Q240 246 260 220Q272 246 276 268Q276 270 274 273ZM200 106Q200 88 185.5 75.0Q171 62 150.0 62.5Q129 63 114.5 75.5Q100 88 100.0 106.0Q100 124 114.5 137.0Q129 150 150.0 150.0Q171 150 185.5 137.0Q200 124 200 106ZM175 106Q175 114 167.5 119.5Q160 125 150.0 125.0Q140 125 132.5 119.5Q125 114 125.0 106.5Q125 99 132.5 93.0Q140 87 150.0 87.5Q160 88 167.5 93.5Q175 99 175 106ZM194 188Q186 187 180.5 182.0Q175 177 175.0 169.0Q175 161 180.5 155.5Q186 150 194.0 150.0Q202 150 207.5 155.5Q213 161 212.5 169.0Q212 177 207.0 182.5Q202 188 194 188Z"/></g></svg>
