<svg xmlns="http://www.w3.org/2000/svg" viewBox="0 0 300 300"><g transform="translate(0 300) scale(1 -1)"><path fill="#000000" d="M288 175H284Q277 201 258.0 220.0Q239 239 212 246V276Q213 282 208.0 285.5Q203 289 198 287Q186 284 176.5 273.5Q167 263 164 250H103Q82 250 63.0 242.0Q44 234 30 221Q26 229 25 239Q24 244 20.0 247.5Q16 251 11.0 250.0Q6 249 2.5 245.0Q-1 241 0 236Q3 215 14 200Q2 180 0 157Q-2 128 11.5 103.0Q25 78 50 63Q50 47 61.0 36.0Q72 25 88 25Q100 25 109.5 32.0Q119 39 123 50H152Q156 39 165.5 32.0Q175 25 188.5 25.0Q202 25 212.5 34.0Q223 43 225 57Q244 65 258.0 79.5Q272 94 280 112H288Q293 113 296.5 116.5Q300 120 300 125V163Q300 168 296.5 171.5Q293 175 288 175ZM209 78Q205 77 202.5 73.5Q200 70 200 66V63Q200 57 196.5 53.5Q193 50 187.5 50.0Q182 50 178.5 53.5Q175 57 175.0 62.5Q175 68 171.5 71.5Q168 75 163 75H113Q107 75 103.5 71.5Q100 68 100.0 62.5Q100 57 96.5 53.5Q93 50 87.5 50.0Q82 50 78.5 53.5Q75 57 75 63V71Q75 79 68 82Q47 92 35.5 112.0Q24 132 25 155Q26 165 30.5 176.5Q35 188 42 197Q53 210 69.0 217.5Q85 225 103 225H184Q204 225 221.0 216.0Q238 207 249.0 191.5Q260 176 262 157Q265 131 250.0 108.5Q235 86 209 78ZM225 169Q225 161 219.5 155.5Q214 150 206.0 150.0Q198 150 192.5 155.5Q187 161 187.0 169.0Q187 177 192.5 182.5Q198 188 206.0 187.5Q214 187 219.5 182.0Q225 177 225 169Z"/></g></svg>
