<svg xmlns="http://www.w3.org/2000/svg" viewBox="0 0 300 300"><g transform="translate(0 300) scale(1 -1)"><path fill="#000000" d="M263 175H221L168 280Q163 289 154.0 294.5Q145 300 135 300H133Q125 300 118.0 296.5Q111 293 106.5 287.0Q102 281 100.5 273.0Q99 265 101 258L125 175H96Q80 175 69 186L51 204Q44 211 34.5 212.5Q25 214 16 209Q5 203 1.5 190.5Q-2 178 4 167L25 132Q33 117 47.5 108.5Q62 100 79 100H125L104 44Q102 37 103.0 29.0Q104 21 108.5 14.5Q113 8 120.0 4.0Q127 0 136.0 0.0Q145 0 154.0 5.0Q163 10 168 19L218 100H263Q278 100 289.0 111.0Q300 122 300.0 137.5Q300 153 289.0 164.0Q278 175 262 175ZM125 265Q124 269 126.5 272.0Q129 275 133 275H135Q142 275 146 269L193 175H151ZM263 125H211Q204 125 201 119L146 32Q143 25 135 25Q131 25 128.5 28.5Q126 32 128 36L155 108Q157 114 153.5 119.5Q150 125 143 125H79Q69 125 60.0 130.0Q51 135 46 144L26 179Q25 182 25.5 184.0Q26 186 27.5 186.5Q29 187 30.5 187.0Q32 187 34 186L51 168Q60 159 71.5 154.5Q83 150 96 150H263Q268 150 271.5 146.5Q275 143 275.0 137.5Q275 132 271.5 128.5Q268 125 263 125Z"/></g></svg>
