<svg xmlns="http://www.w3.org/2000/svg" viewBox="0 0 300 300"><g transform="translate(0 300) scale(1 -1)"><path fill="#000000" d="M288 25H263V156Q280 162 290.0 173.0Q300 184 300.0 200.0Q300 216 291.0 233.0Q282 250 266 262Q248 274 227 275Q206 283 179 289Q132 300 88 300Q82 300 78.5 296.5Q75 293 75.0 287.5Q75 282 78.5 278.5Q82 275 87 275Q133 275 182 263L178 260Q156 249 142 245Q118 237 87 237Q82 238 78.5 234.0Q75 230 75.0 225.0Q75 220 78.5 216.0Q82 212 87 212Q130 213 164 226Q163 219 162 212Q163 202 166 192Q120 180 89 150Q65 126 51 93Q42 70 39 46Q32 50 25 50Q15 50 7.5 42.5Q0 35 0.0 25.0Q0 15 7.0 7.5Q14 0 24 0H288Q293 0 296.5 3.5Q300 7 300.0 12.5Q300 18 296.5 21.5Q293 25 287 25ZM275 200Q275 188 258 181Q243 175 225 175Q209 175 198.5 186.0Q188 197 188.0 212.5Q188 228 198.5 239.0Q209 250 224.0 250.0Q239 250 250.5 241.5Q262 233 268.5 221.0Q275 209 275 200ZM180 170Q188 160 200.0 155.0Q212 150 225 150L237 151V25H213V38Q213 58 202.5 75.0Q192 92 175.0 102.5Q158 113 138 113Q132 112 128.5 108.5Q125 105 125.0 100.0Q125 95 128.5 91.0Q132 87 137 87Q158 88 173.0 73.0Q188 58 188 37V25H63V32Q63 46 67 64Q76 99 98 124Q128 158 180 170Z"/></g></svg>
