<svg xmlns="http://www.w3.org/2000/svg" viewBox="0 0 300 300"><g transform="translate(0 300) scale(1 -1)"><path fill="#000000" d="M249 152Q272 157 286.0 169.0Q300 181 300 200Q300 216 291.0 233.0Q282 250 266 262Q248 274 227 275Q206 283 179 289Q132 300 88 300Q82 300 78.5 296.5Q75 293 75.0 287.5Q75 282 78.5 278.5Q82 275 87 275Q133 275 182 263L178 260Q156 249 142 245Q118 237 87 237Q82 238 78.5 234.0Q75 230 75.0 225.0Q75 220 78.5 216.0Q82 212 87 212Q130 213 164 226Q163 219 162 212Q163 199 168 188H97Q70 188 48 172Q45 179 39.0 183.5Q33 188 25 188Q15 188 7.5 180.5Q0 173 0.0 163.5Q0 154 5.5 147.0Q11 140 19 138Q14 127 13 114Q11 97 16.5 80.5Q22 64 33.5 51.5Q45 39 61.0 32.0Q77 25 94 25Q106 25 114 15Q119 8 127.0 4.0Q135 0 144 0H238Q243 0 246.5 3.5Q250 7 250.0 12.5Q250 18 246.5 21.5Q243 25 238 25H197ZM275 200Q275 188 258 181Q243 175 225 175Q209 175 198.5 186.0Q188 197 188.0 212.5Q188 228 198.5 239.0Q209 250 224.0 250.0Q239 250 250.5 241.5Q262 233 268.5 221.0Q275 209 275 200ZM134 30Q127 39 116.0 44.5Q105 50 93.5 50.0Q82 50 71.0 55.0Q60 60 52 68Q35 87 38 112Q40 133 57.0 148.0Q74 163 97 163H188Q203 151 221 150L175 37V38Q175 73 155.5 93.0Q136 113 100 113Q95 113 91.5 109.0Q88 105 88.0 100.0Q88 95 91.5 91.5Q95 88 100 88Q126 88 138.0 75.5Q150 63 150 38V25H144Q138 25 134 30Z"/></g></svg>
