<svg xmlns="http://www.w3.org/2000/svg" viewBox="0 0 300 300"><g transform="translate(0 300) scale(1 -1)"><path fill="#000000" d="M288 25H275V119Q275 124 271.5 127.5Q268 131 262.5 131.0Q257 131 253.5 127.5Q250 124 250 119V25H225V100Q225 105 221.5 109.0Q218 113 212.5 112.5Q207 112 203.5 108.5Q200 105 200 100V25H100Q84 25 69 32L74 57Q82 88 101 111Q126 143 169 156L174 153Q190 146 197.0 141.5Q204 137 212.5 137.0Q221 137 228.5 141.5Q236 146 251 153Q274 164 284 171Q300 184 300.0 202.5Q300 221 288 240V274Q288 281 284.0 287.5Q280 294 273.0 297.5Q266 301 258.5 300.0Q251 299 245 294L232 284Q222 287 212.5 287.0Q203 287 193 284L180 294Q174 299 166.5 300.0Q159 301 152.0 297.5Q145 294 141.0 287.5Q137 281 137 274V240Q125 221 125.0 203.0Q125 185 141 172Q106 157 83 129Q87 173 88 225L87 256Q87 274 74.5 287.0Q62 300 44.0 300.0Q26 300 13.0 287.5Q0 275 0 257V100Q0 73 13.5 50.0Q27 27 50.0 13.5Q73 0 100 0H288Q293 0 296.5 3.5Q300 7 300.0 12.5Q300 18 296.5 21.5Q293 25 287 25ZM273 213Q264 218 252.0 221.5Q240 225 231.5 225.0Q223 225 218.0 219.5Q213 214 212.5 206.0Q212 198 217.5 193.0Q223 188 231 188Q250 188 268 191Q261 185 241 176Q232 172 224 168Q222 171 219.0 173.0Q216 175 212 175Q205 175 201 168L184 176Q164 185 157 191Q175 187 194 187Q202 187 207.0 192.5Q212 198 212.0 206.0Q212 214 207.0 219.5Q202 225 193.5 225.0Q185 225 173.5 221.5Q162 218 152 213Q158 231 177.0 246.5Q196 262 212.5 262.0Q229 262 248.0 246.5Q267 231 273 213ZM61 175H25V213H62ZM25 150H60Q59 130 57 112H25ZM44 275Q52 275 57.0 269.5Q62 264 63 256V237H25V256Q25 264 30.5 269.5Q36 275 44 275ZM26 88H53Q51 71 48 55L46 48Q30 64 26 87Z"/></g></svg>
