<svg xmlns="http://www.w3.org/2000/svg" viewBox="0 0 300 300"><g transform="translate(0 300) scale(1 -1)"><path fill="#000000" d="M295 97Q291 104 283.0 108.0Q275 112 267 112H33Q25 113 17.0 108.5Q9 104 4.5 96.5Q0 89 0.0 81.0Q0 73 3 65Q16 40 39 23Q71 0 118 0H181Q229 0 261 23Q283 39 296 65Q300 72 300.0 80.5Q300 89 295 97ZM274 76Q263 55 244 42Q219 25 181 25H118Q81 25 56 42Q37 55 26 76Q24 80 26.5 84.0Q29 88 33 88H267Q271 88 273.5 84.0Q276 80 274 76ZM29 138H96Q108 138 116.5 146.5Q125 155 125 167V246Q125 255 120.0 262.5Q115 270 106.5 273.0Q98 276 89.0 274.0Q80 272 74 265L7 186Q2 180 0.5 171.5Q-1 163 2.5 155.0Q6 147 13.5 142.5Q21 138 29 138ZM26 170 93 249Q94 250 96 250Q100 250 100 246V167Q100 165 99.0 164.0Q98 163 96 163H29Q26 163 25.0 165.0Q24 167 26 170ZM159 146Q167 138 179 138H271Q279 138 286.5 142.5Q294 147 297.5 155.0Q301 163 299.5 171.5Q298 180 293 186L201 290Q195 297 186.0 299.0Q177 301 168.5 298.0Q160 295 155.0 287.5Q150 280 150 271V167Q150 155 159 146ZM175 271Q175 274 177.5 275.0Q180 276 182 274L274 169Q276 167 275.0 164.5Q274 162 271 163H179Q177 163 176.0 164.0Q175 165 175 167Z"/></g></svg>
