<svg xmlns="http://www.w3.org/2000/svg" viewBox="0 0 300 300"><g transform="translate(0 300) scale(1 -1)"><path fill="#000000" d="M293 265Q278 269 258 271Q242 288 219.0 288.0Q196 288 179 271Q160 269 144 265Q140 264 138.0 260.0Q136 256 139 252Q146 239 163 235L162 224Q153 222 145 217Q133 225 119 225Q99 225 85 211Q79 213 72 213Q53 213 39.0 199.5Q25 186 25 166Q14 160 7.0 149.0Q0 138 0.0 125.0Q0 112 7.0 101.0Q14 90 25 84Q25 67 35.5 54.5Q46 42 62 38V25Q62 15 69.5 7.5Q77 0 87.5 0.0Q98 0 105.0 7.5Q112 15 112 25V26Q130 23 144 32Q155 25 169 25Q178 25 187 29V25Q187 15 194.5 7.5Q202 0 212.5 0.0Q223 0 230.0 7.5Q237 15 237 25V43Q249 49 255.5 60.0Q262 71 262 84Q278 92 284 108Q286 113 284.0 117.5Q282 122 277.0 124.0Q272 126 267.5 124.0Q263 122 261 117Q257 107 246 104Q241 103 238.5 98.5Q236 94 237 89L238 84Q238 75 231.5 69.0Q225 63 216 63Q210 63 205.0 65.5Q200 68 195.0 67.0Q190 66 188 61Q182 52 171.0 50.5Q160 49 153 57Q149 61 143.5 61.0Q138 61 134.0 56.5Q130 52 122.5 51.0Q115 50 108.5 53.5Q102 57 99.5 61.5Q97 66 92.0 67.0Q87 68 82.5 65.5Q78 63 72 62Q63 63 56.5 69.0Q50 75 50 84L51 89Q52 94 49.0 98.5Q46 103 41 104Q34 106 29.5 112.0Q25 118 25.0 125.0Q25 132 29.5 138.0Q34 144 41 146Q46 147 49.0 151.5Q52 156 51 161L50 166Q50 175 56.5 181.5Q63 188 72 188Q77 188 82.0 185.0Q87 182 92.0 183.0Q97 184 100.0 189.0Q103 194 108.0 197.0Q113 200 119 200Q129 200 136 192Q139 187 145.0 187.0Q151 187 154.5 191.5Q158 196 162 198V184Q162 163 177.5 150.5Q193 138 219.0 138.0Q245 138 260.0 150.5Q275 163 275 184V235Q291 239 299 252Q301 256 299.5 260.0Q298 264 293 265ZM250 184Q250 163 219.0 163.0Q188 163 188 184V231Q187 244 196.5 253.5Q206 263 219.0 263.0Q232 263 241.0 253.5Q250 244 250 231Z"/></g></svg>
