<svg xmlns="http://www.w3.org/2000/svg" viewBox="0 0 300 300"><g transform="translate(0 300) scale(1 -1)"><path fill="#000000" d="M250 150H233Q215 193 179 223Q162 237 139 238H110L101 271Q97 287 83.0 295.0Q69 303 53.5 299.0Q38 295 30.0 281.0Q22 267 26 251L30 238H13Q7 238 3.5 234.0Q0 230 0.0 225.0Q0 220 3.5 216.5Q7 213 12 212H139Q153 212 163 204Q190 181 206 150H195Q184 150 174 144L149 127Q146 125 143 125H13Q7 125 3.5 121.5Q0 118 0.0 112.5Q0 107 3.5 103.5Q7 100 12 100H143Q154 100 163 106L188 123Q191 125 195 125H250Q256 125 262.0 122.0Q268 119 271.5 113.5Q275 108 275.0 101.5Q275 95 273 89Q259 60 231.0 42.5Q203 25 171 25H13Q7 25 3.5 21.5Q0 18 0.0 12.5Q0 7 3.5 3.5Q7 0 12 0H171Q211 0 244.5 21.5Q278 43 295 79Q301 90 300.0 103.0Q299 116 292.0 127.0Q285 138 274.0 144.0Q263 150 250 150ZM50 258Q49 263 52.0 268.0Q55 273 60.5 274.5Q66 276 71.0 273.0Q76 270 77 265L84 238H56ZM0 175Q0 180 3.5 184.0Q7 188 12 188H125Q130 188 134.0 184.0Q138 180 138.0 175.0Q138 170 134.0 166.0Q130 162 125 162H13Q7 162 3.5 166.0Q0 170 0 175ZM50 50Q45 50 41.5 53.5Q38 57 38.0 62.5Q38 68 41.5 71.5Q45 75 50.0 75.0Q55 75 58.5 71.5Q62 68 62.5 62.5Q63 57 59.0 53.5Q55 50 50 50ZM100 50Q95 50 91.5 53.5Q88 57 88.0 62.5Q88 68 91.5 71.5Q95 75 100.0 75.0Q105 75 108.5 71.5Q112 68 112.0 62.5Q112 57 108.5 53.5Q105 50 100 50ZM150 50Q145 50 141.0 53.5Q137 57 137.5 62.5Q138 68 141.5 71.5Q145 75 150.0 75.0Q155 75 159.0 71.5Q163 68 163.0 62.5Q163 57 159.0 53.5Q155 50 150 50Z"/></g></svg>
