<svg xmlns="http://www.w3.org/2000/svg" viewBox="0 0 300 300"><g transform="translate(0 300) scale(1 -1)"><path fill="#000000" d="M288 50Q282 50 278.5 46.5Q275 43 275.0 38.5Q275 34 268.5 29.5Q262 25 253 25Q241 25 233 34L235 36Q266 69 274 113Q277 127 270.0 139.0Q263 151 250 155V188Q250 208 235.5 222.5Q221 237 200 237V250Q200 271 185.5 285.5Q171 300 150.0 300.0Q129 300 114.5 285.5Q100 271 100 250V238Q79 238 64.5 223.0Q50 208 50 187V155Q37 151 30.0 139.0Q23 127 25 113Q34 69 65 36L67 34Q59 24 47 25Q38 25 31.5 29.5Q25 34 25.0 38.5Q25 43 21.5 46.5Q18 50 12.5 50.0Q7 50 3.5 46.5Q0 43 0 37Q0 22 14.0 11.0Q28 0 47.0 0.0Q66 0 81 12Q96 0 115.5 0.0Q135 0 150 12Q165 0 184.5 0.0Q204 0 219 12Q234 0 253.0 0.0Q272 0 286.0 11.0Q300 22 300 37Q300 43 296.5 46.5Q293 50 288 50ZM125 250Q125 260 132.5 267.5Q140 275 150.0 275.0Q160 275 167.5 267.5Q175 260 175 250V238H125ZM100 213H200Q210 213 217.5 205.5Q225 198 225 187V164L162 184Q150 188 138 184L75 164V188Q75 198 82.5 205.0Q90 212 100 212ZM116 25Q109 25 103.5 27.5Q98 30 94 36Q90 45 84 53Q57 80 50 117Q49 122 51.5 126.0Q54 130 58 132L138 158V38Q138 34 131.5 29.5Q125 25 116 25ZM184 25Q175 25 169.0 29.5Q163 34 163 37V158L241 132Q246 130 248.5 126.0Q251 122 250 117Q243 80 216 53Q210 45 206 36Q202 30 196.5 27.5Q191 25 184 25Z"/></g></svg>
