<svg xmlns="http://www.w3.org/2000/svg" viewBox="0 0 300 300"><g transform="translate(0 300) scale(1 -1)"><path fill="#000000" d="M175 250Q175 255 178.5 259.0Q182 263 187.5 263.0Q193 263 196.5 259.0Q200 255 200.0 250.0Q200 245 196.5 241.0Q193 237 187.5 237.0Q182 237 178.5 241.0Q175 245 175 250ZM300 38Q300 22 289.0 11.0Q278 0 262 0H150Q110 -1 75.0 20.0Q40 41 19.5 77.0Q-1 113 0.5 153.5Q2 194 23.0 227.5Q44 261 79.0 280.5Q114 300 155 300H288Q293 300 296.5 296.0Q300 292 300.0 287.0Q300 282 296.5 278.5Q293 275 288 275H274Q271 250 256.5 229.5Q242 209 220.0 198.0Q198 187 173 187Q145 187 122 172Q134 161 150 163Q155 163 159.0 159.0Q163 155 163.0 150.0Q163 145 159.0 141.0Q155 137 150 137Q137 137 125.0 141.0Q113 145 104 154Q94 142 90 126Q97 119 106.0 115.5Q115 112 125 113Q130 113 134.0 109.0Q138 105 138 100Q136 85 115 88Q102 89 88 96Q91 76 102.5 60.0Q114 44 131.5 34.5Q149 25 169 25Q190 41 212 55Q246 75 262.0 75.0Q278 75 289.0 64.0Q300 53 300 38ZM138 244Q138 229 149.0 219.5Q160 210 175 213Q202 213 223.0 230.5Q244 248 249 275H168Q156 275 146.5 266.0Q137 257 137 244ZM56 231Q59 214 71.5 201.5Q84 189 102 187Q114 197 129 204Q116 217 113.5 235.5Q111 254 119 270Q82 260 56 231ZM82 45Q71 60 66.5 77.5Q62 95 63 113Q45 111 29 117Q35 95 48.5 76.5Q62 58 82 45ZM82 166Q67 171 56.0 181.0Q45 191 38 205Q26 180 25 153Q29 145 37 141Q49 135 68 139Q73 153 82 166ZM275 38Q272 54 256 49Q246 46 222 31L213 25H263Q268 25 271.5 28.5Q275 32 275 38Z"/></g></svg>
