<svg xmlns="http://www.w3.org/2000/svg" viewBox="0 0 300 300"><g transform="translate(0 300) scale(1 -1)"><path fill="#000000" d="M235 147 282 126Q285 125 288.0 125.0Q291 125 294.0 127.0Q297 129 299.0 133.0Q301 137 299.0 142.0Q297 147 293 149L202 189L239 206Q255 214 265.0 229.5Q275 245 275 263V288Q275 293 271.5 296.5Q268 300 262.5 300.0Q257 300 253.5 296.5Q250 293 250 288V263Q250 252 244.0 243.0Q238 234 228 229L193 213L194 219Q194 237 181.0 250.0Q168 263 150.0 263.0Q132 263 119.0 250.0Q106 237 106 219L107 213L72 229Q62 234 56.0 243.0Q50 252 50 263V288Q50 293 46.5 296.5Q43 300 37.5 300.0Q32 300 28.5 296.5Q25 293 25 288V263Q25 245 35.0 229.5Q45 214 61 206L98 189L7 149Q3 147 1.0 142.0Q-1 137 1.0 133.0Q3 129 6.0 127.0Q9 125 12.0 125.0Q15 125 18 126L65 147L18 84Q0 60 0 31V13Q0 7 3.5 3.5Q7 0 12.5 0.0Q18 0 21.5 3.5Q25 7 25 13V31Q25 52 38 69L63 103Q65 81 77.5 63.5Q90 46 109.0 35.5Q128 25 150.0 25.0Q172 25 191.0 35.5Q210 46 222.5 63.5Q235 81 237 103L263 69Q275 52 275 31V13Q275 7 278.5 3.5Q282 0 287.5 0.0Q293 0 296.5 3.5Q300 7 300 13V31Q300 60 283 84ZM150 238Q158 237 163.5 232.0Q169 227 169.0 219.0Q169 211 163.5 205.5Q158 200 150.0 200.0Q142 200 136.5 205.5Q131 211 131.0 219.0Q131 227 136.5 232.5Q142 238 150 237ZM150 50Q133 50 118.5 58.5Q104 67 96.0 81.5Q88 96 88.0 112.5Q88 129 96.0 143.5Q104 158 118.5 166.5Q133 175 150.0 175.0Q167 175 181.5 166.5Q196 158 204.0 143.5Q212 129 212.5 112.5Q213 96 204.5 81.5Q196 67 181.5 58.5Q167 50 150 50Z"/></g></svg>
