<svg xmlns="http://www.w3.org/2000/svg" viewBox="0 0 300 300"><g transform="translate(0 300) scale(1 -1)"><path fill="#000000" d="M238 300H165Q143 300 127 284Q117 275 114.0 261.0Q111 247 114 233L123 202Q111 193 102 184L51 133Q47 128 40.5 128.0Q34 128 29.5 132.5Q25 137 25.0 143.5Q25 150 29 154L59 184Q63 188 63.0 193.0Q63 198 59.5 202.0Q56 206 50.5 206.0Q45 206 42 202L12 172Q0 160 0.0 143.5Q0 127 11.5 115.5Q23 104 38.0 103.0Q53 102 65 112L80 97L41 58Q37 54 37.0 49.0Q37 44 40.5 40.0Q44 36 49.5 36.0Q55 36 58 40L98 79L112 64Q104 52 105.0 37.0Q106 22 117.0 11.0Q128 0 145.0 0.0Q162 0 173 12L203 41Q206 45 206.0 50.0Q206 55 202.5 58.5Q199 62 194.0 62.0Q189 62 185 59L156 29Q151 25 145.0 25.0Q139 25 134.5 29.5Q130 34 130.0 40.5Q130 47 134 51L184 102Q194 111 202 123L233 114Q241 112 248 112Q270 112 285.0 127.5Q300 143 300 165V237Q300 254 291.5 268.5Q283 283 268.5 291.5Q254 300 238 300ZM167 120 130 82 83 129 120 167Q141 188 175 206Q204 220 225 225Q220 204 205 175Q188 141 167 120ZM275 165Q275 153 267 145Q262 140 254.5 138.5Q247 137 239 139L217 145Q229 164 238 186Q246 205 249 220Q251 226 249.0 232.0Q247 238 242.5 242.5Q238 247 232.0 249.0Q226 251 220 249Q205 246 186 238Q164 229 145 217L139 239Q137 247 138.5 254.5Q140 262 145 267Q153 275 165 275H237Q253 275 264.0 264.0Q275 253 275 238Z"/></g></svg>
