<svg xmlns="http://www.w3.org/2000/svg" viewBox="0 0 300 300"><g transform="translate(0 300) scale(1 -1)"><path fill="#000000" d="M294 123Q281 131 268 135Q260 138 255.0 144.5Q250 151 250 159V169Q271 172 285.5 182.0Q300 192 300 209Q300 222 292.0 236.0Q284 250 270.0 259.5Q256 269 239 269H238V291Q238 296 234.0 298.5Q230 301 226 300Q214 296 207.0 286.0Q200 276 200 264V251Q188 237 187 219Q188 214 175 204Q167 198 150 186Q124 170 111 159Q89 142 77 123Q63 100 63 75Q45 106 35.0 145.0Q25 184 25 224Q25 242 36.5 256.5Q48 271 64.5 274.0Q81 277 94.5 271.0Q108 265 116.5 252.5Q125 240 125 225Q125 220 128.5 216.5Q132 213 137.0 213.0Q142 213 146.0 216.0Q150 219 150 224Q149 253 130.5 274.5Q112 296 85 299Q63 302 43.0 292.5Q23 283 11.5 265.0Q0 247 0 225Q0 163 21 107Q34 70 53.0 42.5Q72 15 104 5Q118 0 134 0H263Q268 0 271.5 3.5Q275 7 275.0 12.5Q275 18 271.5 21.5Q268 25 262 25H225Q238 42 237 63Q238 79 229.5 93.5Q221 108 206.5 116.5Q192 125 175 125Q170 125 166.5 121.5Q163 118 163.0 112.5Q163 107 166.5 103.5Q170 100 175 100Q195 100 204 88Q214 74 212.5 59.0Q211 44 200.0 34.5Q189 25 175 25H134Q123 25 113 28Q88 43 88 73Q88 93 99 111Q109 126 128 141Q139 150 163 165Q188 182 197 190Q208 175 225 171V159Q225 143 234.5 130.0Q244 117 260 112Q271 108 281 102Q284 100 288 100Q295 100 298.0 105.0Q301 110 299.5 115.0Q298 120 294 123ZM239 194Q228 194 220.0 201.0Q212 208 212.5 218.5Q213 229 220.5 236.5Q228 244 238.5 244.0Q249 244 257.5 238.0Q266 232 270.5 224.0Q275 216 275.0 209.0Q275 202 263.5 198.0Q252 194 239 194Z"/></g></svg>
