<svg xmlns="http://www.w3.org/2000/svg" viewBox="0 0 300 300"><g transform="translate(0 300) scale(1 -1)"><path fill="#000000" d="M287 169 230 192 273 256Q276 262 274.0 267.0Q272 272 267.0 274.0Q262 276 256 273L192 230L169 287Q167 293 161.5 296.5Q156 300 150.0 300.0Q144 300 138.5 296.5Q133 293 131 287L108 230L44 273Q38 276 33.0 274.0Q28 272 26.0 267.0Q24 262 27 256L70 192L13 169Q7 167 3.5 161.5Q0 156 0.0 150.0Q0 144 3.5 138.5Q7 133 13 131L70 108L27 44Q24 39 26.0 33.5Q28 28 33.0 26.0Q38 24 44 27L108 70L131 13Q133 7 138.5 3.5Q144 0 150.0 0.0Q156 0 161.5 3.5Q167 7 169 13L192 70L256 27Q262 24 267.0 26.0Q272 28 274.0 33.5Q276 39 273 44L230 108L287 131Q293 133 296.5 138.5Q300 144 300.0 150.0Q300 156 296.5 161.5Q293 167 287 169ZM189 118Q184 116 182 111L150 32L118 111Q116 116 111 118L32 150L111 182Q116 184 118 189L150 268L182 189Q184 184 189 182L268 150Z"/></g></svg>
