<svg xmlns="http://www.w3.org/2000/svg" viewBox="0 0 300 300"><g transform="translate(0 300) scale(1 -1)"><path fill="#000000" d="M288 200Q265 200 255 201Q238 203 228 210L271 254Q277 259 275.0 266.0Q273 273 266.0 275.0Q259 277 254 271L210 228Q204 238 202 254Q200 266 200 288Q200 293 196.5 296.5Q193 300 188 300Q177 299 175 286Q174 279 176 261L177 248Q137 271 102 257Q72 245 46 207Q25 175 10 132Q-7 79 4 44Q16 12 50.0 3.0Q84 -6 132 10Q175 25 206 46Q244 72 257 102Q271 137 249 177Q252 177 261 176Q279 174 286 175Q299 177 300 188Q300 193 296.5 196.5Q293 200 288 200ZM218 88Q202 70 166 52Q127 32 94 27Q54 20 37 37Q23 52 26 86Q29 118 45.5 154.0Q62 190 83 213Q108 239 130 237Q162 238 200 200Q265 134 218 88ZM170 170Q175 165 175.0 158.5Q175 152 170 147Q159 140 146 138Q142 137 139.5 139.5Q137 142 138 146Q140 159 147 170Q152 175 158.5 175.0Q165 175 170 170ZM208 133Q213 128 213.0 121.0Q213 114 208 110Q196 102 183 100Q180 99 177.0 102.0Q174 105 175 108Q177 121 185 133Q189 137 196.0 137.0Q203 137 208 133ZM108 145Q113 140 113.0 133.5Q113 127 108 122Q96 115 83 113Q80 112 77.0 114.5Q74 117 75 121Q77 134 85 145Q89 150 96.0 150.0Q103 150 108 145ZM83 83Q88 78 88.0 71.0Q88 64 83 60Q71 52 58 50Q55 49 52.0 52.0Q49 55 50 58Q52 71 60 83Q64 87 71.0 87.0Q78 87 83 83ZM145 108Q150 103 150.0 96.0Q150 89 145 85Q134 77 121 75Q117 74 114.5 77.0Q112 80 113 83Q115 96 122 108Q127 112 133.5 112.0Q140 112 145 108ZM100 183Q102 196 110 208Q114 213 121.0 213.0Q128 213 133.0 208.0Q138 203 138.0 196.0Q138 189 133 185Q121 177 108 175Q105 174 102.0 177.0Q99 180 100 183Z"/></g></svg>
