<svg xmlns="http://www.w3.org/2000/svg" viewBox="0 0 300 300"><g transform="translate(0 300) scale(1 -1)"><path fill="#000000" d="M288 163H237Q235 173 231 183L275 208Q282 212 282.0 219.0Q282 226 275.5 230.0Q269 234 263 230L219 204Q212 212 204 219L230 263Q232 267 230.5 272.0Q229 277 225.0 279.5Q221 282 216.0 281.0Q211 280 208 275L183 231Q173 235 162 237V288Q162 293 158.5 296.5Q155 300 150.0 300.0Q145 300 141.0 296.5Q137 293 137 288V237Q127 235 117 231L92 275Q89 280 84.0 281.0Q79 282 75.0 279.5Q71 277 69.5 272.0Q68 267 70 263L96 219Q88 212 81 204L37 230Q31 234 24.5 230.0Q18 226 18.0 219.0Q18 212 25 208L69 183Q65 173 63 163H13Q7 163 3.5 159.0Q0 155 0.0 150.0Q0 145 3.5 141.0Q7 137 12 137H64Q65 127 69 117L25 92Q18 88 18.0 81.0Q18 74 24.5 70.0Q31 66 37 70L81 96Q88 88 96 81L70 37Q68 33 69.5 28.0Q71 23 75.0 20.5Q79 18 84.0 19.0Q89 20 92 25L117 69Q127 65 138 63V13Q138 7 141.5 3.5Q145 0 150.0 0.0Q155 0 159.0 3.5Q163 7 163 12V64Q173 65 183 69L208 25Q211 20 216.0 19.0Q221 18 225.0 20.5Q229 23 230.5 28.0Q232 33 230 37L204 81Q212 88 219 96L263 70Q269 66 275.5 70.0Q282 74 282.0 81.0Q282 88 275 92L231 117Q235 127 237 138H288Q293 138 296.5 141.5Q300 145 300.0 150.0Q300 155 296.5 159.0Q293 163 288 163ZM150 88Q121 88 104 108Q88 125 88.0 150.0Q88 175 104 192Q121 212 150.0 212.0Q179 212 196 192Q212 175 212.0 150.0Q212 125 196 108Q179 88 150 88Z"/></g></svg>
