<svg xmlns="http://www.w3.org/2000/svg" viewBox="0 0 300 300"><g transform="translate(0 300) scale(1 -1)"><path fill="#000000" d="M256 256Q227 285 188.5 295.0Q150 305 111.5 295.0Q73 285 44.0 256.0Q15 227 5.0 188.5Q-5 150 5.0 111.5Q15 73 44.0 44.0Q73 15 111.5 5.0Q150 -5 188.5 5.0Q227 15 256.0 44.0Q285 73 295.0 111.5Q305 150 295.0 188.5Q285 227 256 256ZM274 163Q251 161 229.5 168.5Q208 176 192.0 192.0Q176 208 168.5 229.5Q161 251 163 274Q192 271 216.5 256.0Q241 241 256.0 216.5Q271 192 274 163ZM26 137Q49 139 70.5 131.5Q92 124 108.0 108.0Q124 92 131.5 70.5Q139 49 137 26Q108 29 83.5 44.0Q59 59 44.0 83.5Q29 108 26 137ZM238 62Q223 46 203.5 37.0Q184 28 162 26Q165 54 155.5 80.0Q146 106 126.0 126.0Q106 146 79.5 155.5Q53 165 26 162Q28 191 43.5 216.0Q59 241 84.0 256.5Q109 272 138 274Q136 248 144.0 223.0Q152 198 170.0 178.5Q188 159 212.0 148.0Q236 137 263 138H274Q272 116 263.0 96.5Q254 77 238 62Z"/></g></svg>
