<svg xmlns="http://www.w3.org/2000/svg" viewBox="0 0 300 300"><g transform="translate(0 300) scale(1 -1)"><path fill="#000000" d="M275 168Q273 192 262 213Q274 216 282.0 224.0Q290 232 295.5 244.5Q301 257 300.0 270.0Q299 283 291.0 291.0Q283 299 270.0 300.0Q257 301 244.5 295.5Q232 290 224.0 282.0Q216 274 213 262Q192 273 168 275Q159 284 146 291Q128 300 106 300H88Q82 300 78.5 296.5Q75 293 75.0 287.5Q75 282 78.5 278.5Q82 275 88 275H106Q120 275 131 270Q109 263 93 247Q80 234 68.0 213.0Q56 192 48 168Q29 165 16 153Q0 137 0 112Q0 107 3.5 103.5Q7 100 12.5 100.0Q18 100 21.5 103.5Q25 107 25 113Q25 132 40 140Q33 100 44 74Q35 62 26 39Q23 33 28.0 28.0Q33 23 39 26Q62 35 74 44Q90 37 111 37Q124 37 140 40Q132 25 112 25Q107 25 103.5 21.5Q100 18 100.0 12.5Q100 7 103.5 3.5Q107 0 112 0Q137 0 153 16Q165 29 168 48Q192 56 213.0 68.0Q234 80 247 93Q263 109 270 131Q275 120 275 106V87Q275 82 278.5 78.5Q282 75 287.5 75.0Q293 75 296.5 78.5Q300 82 300 87V106Q300 128 291 146Q284 159 275 168ZM69 150Q76 176 89 199L109 179L102 150ZM164 186 186 164 178 134 149 126 127 148 135 178ZM150 69V101L180 109L199 89Q176 76 150 69ZM198 188 188 198V246Q208 240 224.0 224.0Q240 208 246 187H198ZM242 265Q249 272 261 274Q264 275 268.0 275.0Q272 275 273.5 273.5Q275 272 275.0 268.5Q275 265 274 261Q272 249 265 242Q260 238 253.5 238.0Q247 238 242.5 242.5Q238 247 238.0 253.5Q238 260 242 265ZM163 250V211L123 200L103 221Q107 225 111 229Q121 239 134.5 244.5Q148 250 163 250ZM74 74Q59 89 63 125H115L125 115V63Q89 59 74 74ZM229 111Q225 107 221 103L201 123L212 163H250Q250 148 244.5 134.5Q239 121 229 111Z"/></g></svg>
