<svg xmlns="http://www.w3.org/2000/svg" viewBox="0 0 300 300"><g transform="translate(0 300) scale(1 -1)"><path fill="#000000" d="M285 215Q257 228 244 248L297 291Q300 294 297.5 298.0Q295 302 291 301L238 281V289Q238 295 233.0 298.0Q228 301 223 299Q215 296 209.0 288.5Q203 281 201 272Q175 264 161 237Q150 217 150 194Q150 191 148.0 189.5Q146 188 144 188H100Q89 188 78.5 182.5Q68 177 61 169Q61 169 61 169Q36 160 20 139Q0 110 0 63Q0 57 3.5 53.5Q7 50 12.5 50.0Q18 50 21.5 53.5Q25 57 25 63Q25 115 50 135Q50 122 55 105Q58 95 64 76L69 62L66 42Q64 25 75.0 12.5Q86 0 103 0Q117 0 127.5 9.5Q138 19 140 33L142 50H162V38Q162 22 173.0 11.0Q184 0 199.5 0.0Q215 0 226.0 11.0Q237 22 237 38V67L242 90Q246 105 248.0 115.5Q250 126 250 139V164L278 167Q287 169 293.5 176.0Q300 183 300.0 191.5Q300 200 296.0 206.5Q292 213 285 215ZM247 189Q238 188 231.5 180.5Q225 173 225 164V139Q225 128 223.5 119.0Q222 110 218 96L212 69V38Q213 32 209.0 28.5Q205 25 200.0 25.0Q195 25 191.5 28.5Q188 32 188 38V63Q188 68 184.0 71.5Q180 75 175 75H131Q127 75 123.0 72.0Q119 69 119 64L115 36Q115 31 111.5 28.0Q108 25 103.0 25.0Q98 25 94.5 29.0Q91 33 91 39L94 61Q95 63 94 66L88 85Q82 102 79 111Q75 127 75.0 137.5Q75 148 82.5 155.5Q90 163 100 163H144Q157 163 166.0 172.0Q175 181 175.0 194.5Q175 208 181 221Q191 246 216 249Q230 212 275 192Z"/></g></svg>
