<svg xmlns="http://www.w3.org/2000/svg" viewBox="0 0 300 300"><g transform="translate(0 300) scale(1 -1)"><path fill="#000000" d="M200 81Q200 73 194.5 68.0Q189 63 181.0 63.0Q173 63 167.5 68.0Q162 73 162.5 81.0Q163 89 168.0 94.5Q173 100 181.0 100.0Q189 100 194.5 94.5Q200 89 200 81ZM300 94V75Q300 55 290.0 37.5Q280 20 262.5 10.0Q245 0 225 0H109Q80 0 54.5 14.5Q29 29 14.5 54.5Q0 80 0 109Q0 173 36 227L42 236Q25 243 13.5 258.0Q2 273 0 292Q0 295 2.0 297.5Q4 300 7 300Q23 299 36 293Q47 289 55 281Q61 276 66 270L69 265Q69 266 72.5 271.0Q76 276 82 281Q90 289 101 293Q114 299 130 300Q133 300 135.5 297.5Q138 295 137 292Q135 271 120.5 254.5Q106 238 86 233L80 199Q76 176 75 154Q102 176 129.5 188.0Q157 200 181 200H194Q223 200 247.0 185.5Q271 171 285.5 147.0Q300 123 300 94ZM275 94Q275 116 264.0 134.5Q253 153 234.5 164.0Q216 175 194 175H181Q157 175 128.0 159.5Q99 144 71 116Q69 113 65.0 112.5Q61 112 57.5 113.5Q54 115 52.0 118.0Q50 121 50 125V138Q50 171 55 203L57 214Q42 191 33.5 164.0Q25 137 25 109Q25 86 36.5 67.0Q48 48 67.0 36.5Q86 25 109 25H225Q246 25 260.5 39.5Q275 54 275 75Z"/></g></svg>
